<?xml version="1.0" encoding="utf-8"?>
<!-- Generator: Adobe Illustrator 27.5.0, SVG Export Plug-In . SVG Version: 6.00 Build 0)  -->
<svg version="1.1" xmlns="http://www.w3.org/2000/svg" xmlns:xlink="http://www.w3.org/1999/xlink" x="0px" y="0px"
	 viewBox="0 0 2200 2200" style="enable-background:new 0 0 2200 2200;" xml:space="preserve">
<g id="background">
	<rect x="0" style="fill:#DCE2E4;" width="2200" height="2200"/>
</g>
<g id="Objects">
	<g>
		<path d="M442.807,746.187c-0.34-0.01-0.679-0.015-1.019-0.023c0.011,0.002,0.021,0.003,0.032,0.005
			c0.321,0.008,0.664,0.017,1.021,0.025C442.829,746.192,442.818,746.19,442.807,746.187z"/>
		<path d="M521.774,1353.822c2.344-0.33,4.911-0.712,7.52-1.227c28.637-5.01,55.813-14.263,80.957-29.275
			c22.359-13.349,42.123-31.56,58.281-51.92c34.246-43.152,52.606-98.628,56.157-153.246
			c4.146-63.751-12.501-128.645-36.216-187.376c-23.135-57.294-56.079-110.89-100.968-153.672
			c-19.68-18.756-41.955-34.386-66.829-45.501c-30.879-13.797-64.718-18.216-98.261-15.951
			c-28.142,1.901-55.883,11.019-79.871,25.773c-20.446,12.576-38.063,30.266-52.378,49.422
			c-33.512,44.848-51.779,100.902-61.212,155.549c-5.397,31.267-7.767,63.05-7.41,94.771c0.363,32.255,2.991,65.033,10.069,96.555
			c12.49,55.628,39.104,108.261,80.321,148.066c20.771,20.06,43.864,36.29,70.131,48.427c29.689,13.719,61.848,20,94.343,21.673
			C491.5,1356.667,506.814,1355.928,521.774,1353.822z M644.452,1145.699c-1.573,9.917-3.676,19.737-6.277,29.427
			c-0.424,0.276-0.848,0.6-1.266,0.996c-0.245,0.231-0.605,0.58-1.074,1.036c-0.88,0.859-2.165,2.125-3.796,3.741
			c-3.235,3.204-7.845,7.795-13.37,13.31c-9.606,9.588-21.984,21.974-34.716,34.727c6.597-9.099,13.284-18.421,19.743-27.575
			c15.184-21.519,26.827-38.888,34.606-51.623c3.027-4.954,5.468-9.162,7.38-12.777
			C645.314,1139.875,644.914,1142.788,644.452,1145.699z M441.155,745.894c-0.23,0.012-0.476,0.026-0.753,0.041
			C438.775,745.643,439.762,745.689,441.155,745.894z M428.517,748.242c1.063-0.293,2.126-0.584,3.198-0.848
			c1.263-0.311,2.533-0.597,3.805-0.867c0.988-0.132,1.976-0.259,2.969-0.362c0.033-0.003,0.07-0.007,0.106-0.01
			c1.666,0.09,4.142,0.235,5.99,0.423c-1.14-0.162-2.051-0.298-2.765-0.41c-0.136-0.003-0.266-0.007-0.396-0.01
			c0.121,0.003,0.243,0.002,0.364,0.005c-0.44-0.069-0.81-0.129-1.108-0.181c0.244-0.018,0.484-0.036,0.716-0.053
			c0.401,0.062,0.822,0.135,1.217,0.217c0.065,0.013,0.13,0.027,0.194,0.04c0.696,0.02,1.391,0.041,2.087,0.058
			c-0.751-0.018-1.422-0.035-2.054-0.051c0.654,0.134,1.307,0.27,1.96,0.406c0.34,0.036,0.656,0.074,0.936,0.113
			c0.74,0.103,1.477,0.231,2.217,0.331c-1.143-0.154-2.142-0.292-3.017-0.415c1.255,0.262,2.509,0.531,3.757,0.832
			c1.477,0.357,2.949,0.739,4.413,1.146c0.05,0.014,0.099,0.029,0.148,0.043c2.856,1,5.695,2.035,8.497,3.188
			c3.308,1.362,6.569,2.837,9.781,4.413c0.392,0.192,0.78,0.391,1.169,0.59c1.55,0.864,3.102,1.723,4.633,2.621
			c15.06,8.831,28.826,19.681,41.564,31.588c38.132,37.226,66.977,83.646,88.447,132.169c6.556,14.817,12.393,29.939,17.58,45.287
			c15.392,47.174,25.167,96.833,22.689,146.416c-1.1-0.745-2.404-1.154-3.751-1.154c-1.773,0-3.475,0.705-4.729,1.959
			l-141.642,141.642c11.602-17.129,31.021-43.622,63.44-84.567c40.068-50.606,80.537-98.658,80.941-99.138
			c2.341-2.777,2.037-6.916-0.686-9.322c-2.722-2.405-6.865-2.198-9.335,0.466c-0.449,0.485-45.479,49.069-92.478,98.037
			c-10.334,10.766-19.661,20.404-28.089,29.039c9.457-11.306,19.234-23.096,28.914-34.92c28.834-35.224,51.223-63.919,66.542-85.288
			c9.207-12.842,15.98-23.22,20.131-30.845c4.701-8.639,8.313-17.373,2.943-22.742c-1.254-1.254-2.956-1.959-4.729-1.959
			s-3.475,0.705-4.729,1.959L460.9,1177.548c44.084-56.248,106.477-134.296,154.348-193.691c2.145-2.661,1.938-6.51-0.478-8.926
			c-1.635-1.635-4.557-3.535-9.204-3.318c-6.191,0.292-16.985,4.487-42.012,26.584c1.572-2.061,3.091-4.064,4.557-6.012
			c10.683-14.194,18.65-25.548,23.681-33.745c5.753-9.374,10.463-18.242,4.983-23.722c-1.302-1.301-3.06-2.013-4.922-1.956
			c-1.839,0.053-3.576,0.861-4.801,2.235c-0.532,0.598-53.924,60.461-110.127,120.24
			c-75.192,79.978-106.686,108.011-119.798,117.702c4.487-7.614,14.164-21.431,34.859-46.307
			c23.609-28.378,54.594-62.986,84.559-96.454c27.683-30.92,53.831-60.125,72.717-82.768c10.229-12.263,17.464-21.57,22.119-28.454
			c3.965-5.862,10.602-15.674,4.611-21.664c-1.678-1.679-3.99-2.561-6.542-2.492c-4.636,0.131-13.202,0.368-73.159,60.443
			c10.581-13.292,19.744-25.083,27.437-35.303c10.641-14.14,18.583-25.444,23.604-33.598c5.752-9.34,10.464-18.175,5.021-23.619
			c-1.442-1.442-3.369-2.198-5.473-2.135c-7.195,0.225-18.007,11.287-82.629,84.544c-29.526,33.471-62.992,71.408-91.239,100.929
			c-20.903,21.846-34.261,34.102-42.751,40.956c31.837-44.075,130.651-167.04,195.746-246.744c2.173-2.659,1.978-6.532-0.45-8.96
			c-1.276-1.277-3.081-2.012-4.896-1.983c-4.516,0.061-4.785,0.065-72.231,71.275c-29.099,30.723-62.081,65.546-89.749,93.738
			c-1.194,1.217-2.365,2.407-3.508,3.566c6.417-7.624,13.027-15.438,19.445-23.025c116.02-137.149,130.559-160.853,120.286-171.124
			c-1.648-1.648-3.901-2.527-6.377-2.463c-5.641,0.136-14.587,3.815-55.675,46.203c-22.199,22.9-47.77,50.903-71.225,76.719
			c6.597-8.567,13.246-17.164,19.582-25.356c19.936-25.777,40.551-52.432,55.525-72.708c8.13-11.009,13.968-19.278,17.849-25.282
			c4.778-7.392,9.291-14.374,4.334-19.331c-1.783-1.782-4.26-2.715-6.93-2.632c-12.933,0.411-42.002,28.671-118.798,115.729
			c7.284-11.425,17.017-26.132,30.017-45.056c25.396-36.97,50.901-72,51.156-72.349c1.939-2.662,1.652-6.339-0.677-8.668
			c-1.576-1.576-3.726-2.387-6.056-2.306c-3.777,0.145-10.074,0.393-52.266,46.052c8.392-12.906,17.958-25.003,28.884-35.902
			c9.439-8.755,19.688-16.17,30.841-22.598c0.129-0.063,0.258-0.128,0.388-0.19c1.288-0.619,2.586-1.216,3.894-1.792
			C422.369,750.514,425.424,749.324,428.517,748.242z M299.661,1002.449c0.947,0.424,1.983,0.647,3.02,0.624
			c4.693-0.113,5.539-0.134,60.906-61.112c24.777-27.288,52.86-58.216,77.06-83.277c19.717-20.418,31.602-31.402,38.722-37.303
			c-4.961,8.37-14.89,22.883-34.651,47.926c-23.524,29.813-53.693,65.476-80.311,96.941c-17.937,21.203-34.879,41.23-46.671,55.815
			c-6.346,7.847-10.874,13.711-13.845,17.927c-1.998,2.836-4.271,6.062-5.019,9.2
			C298.465,1033.613,298.721,1018.01,299.661,1002.449z M321.528,883.858c2.715-7.959,5.681-15.881,8.933-23.701
			c13.527-15.586,27.578-31.218,40.059-44.524c-7.004,9.969-14.527,20.785-21.945,31.644
			c-12.003,17.569-21.937,32.618-29.667,44.933C319.754,889.418,320.624,886.633,321.528,883.858z M306.98,941.625
			c3.082-0.479,6.08-3.881,32.069-33.4c18.628-21.157,44.141-50.133,66.671-73.833c13.575-14.28,23.315-23.734,30.286-29.99
			c-15.523,21.82-43.308,57.745-65.378,86.281c-18.896,24.431-38.434,49.694-52.396,68.551
			c-7.564,10.216-12.996,17.874-16.605,23.409c-0.159,0.244-0.316,0.486-0.474,0.729C302.515,969.381,304.45,955.449,306.98,941.625
			z M455.951,1319.823c-1.04-0.354-2.082-0.704-3.117-1.075c-5.299-1.897-10.514-4.027-15.63-6.372
			c-2.251-1.032-4.468-2.129-6.688-3.224c-1.005-0.552-2.012-1.1-3.01-1.665c-5.002-2.834-9.887-5.875-14.647-9.1
			c-9.958-6.749-19.317-14.323-28.122-22.511c-31.244-30.627-54.086-68.869-68.26-110.159
			c-11.462-35.632-16.034-73.072-17.418-110.382c-0.023-0.632-0.037-1.264-0.058-1.896c0.33,0.933,0.884,1.837,1.74,2.693
			c1.415,1.415,3.355,2.194,5.389,2.15c4.174-0.057,8.49-0.115,59.189-51.608c17.023-17.29,36.2-37.265,55.362-57.389
			c-3.521,4.396-7.056,8.818-10.581,13.232c-30.466,38.157-54.526,68.79-71.51,91.049c-10.125,13.27-17.835,23.698-22.915,30.995
			c-7.188,10.325-11.527,16.558-6.621,21.464c1.408,1.407,3.91,3.059,7.798,2.938c18.228-0.57,63.298-48.271,157.43-154.98
			c15.311-17.356,31.606-35.83,45.146-50.704c-15.692,21.353-42.463,55.542-88.036,110.273
			c-53.809,64.622-107.828,126.651-108.367,127.27c-2.417,2.773-2.14,6.977,0.619,9.41c2.758,2.432,6.963,2.18,9.414-0.563
			c0.53-0.595,53.652-60.073,109.557-119.491c65.223-69.322,97.378-99.417,113.178-112.395
			c-4.553,6.098-11.305,14.591-21.305,26.417c-18.336,21.684-42.416,48.58-67.91,77.055
			c-32.172,35.933-65.438,73.089-89.714,102.676c-13.247,16.145-22.587,28.53-28.555,37.864
			c-6.583,10.296-11.811,20.686-5.555,26.941c1.69,1.689,4.025,2.582,6.592,2.507c5.984-0.172,18.437-0.529,135.521-124.928
			c19.01-20.198,37.759-40.475,54.324-58.552c-15.547,19.792-36.239,45.351-63.761,78.345
			c-9.236,11.072-18.482,22.072-27.463,32.697c-44.332,50.129-81.126,94.544-81.552,95.059c-2.333,2.818-1.967,6.989,0.82,9.359
			c2.787,2.368,6.962,2.058,9.37-0.695c0.466-0.533,37.84-43.342,81.462-94.951c7.637-8.635,15.496-17.438,23.433-26.216
			c31.592-34.938,58.164-62.601,78.981-82.22c13.251-12.489,22.832-20.427,29.696-25.466
			c-19.527,24.297-55.783,69.493-91.523,114.489c-30.709,38.663-55.037,69.619-72.308,92.01
			c-10.281,13.328-18.156,23.747-23.405,30.965c-2.915,4.009-5.023,7.028-6.445,9.232c-1.758,2.726-5.031,7.797-0.897,11.932
			c1.254,1.255,2.956,1.96,4.729,1.96c0,0,0,0,0,0c1.774,0,3.475-0.705,4.729-1.959l196.502-196.504
			c-3.204,4.637-6.994,9.951-11.472,16.036c-15.855,21.546-37.92,49.526-65.58,83.162c-47.168,57.357-94.849,111.946-95.325,112.491
			c-2.316,2.65-2.183,6.642,0.307,9.131c1.437,1.437,3.388,2.21,5.485,2.165c4.325-0.082,10.689-0.196,90.473-82.263
			c-15.072,19.637-27.304,36.278-36.511,49.678c-23.252,33.841-24.702,42.837-19.181,48.359c1.254,1.254,2.955,1.959,4.729,1.959
			c1.773,0,3.475-0.705,4.729-1.959l140.639-140.639c-15.348,23.635-43.751,64.218-96.107,133.853
			c-1.552,2.063-2.767,3.68-3.592,4.782c-0.426,0.568-0.75,1.005-0.968,1.3c-3.619,4.92-0.069,8.716,0.347,9.133
			c1.255,1.254,2.956,1.959,4.729,1.959c0.002,0,0.004,0,0.006,0c1.776-0.002,3.479-0.71,4.732-1.968
			c30.917-31.036,72.636-72.863,97.096-97.288c-4.178,9.483-9.494,20.997-15.352,33.335c-9.627,15.884-21.08,30.629-34.364,43.759
			c-6.107,5.674-12.51,11.017-19.278,15.891c-3.697,2.663-7.489,5.193-11.369,7.581c-1.935,1.191-3.893,2.346-5.871,3.464
			c-0.583,0.329-1.17,0.651-1.756,0.974c-7.592,3.703-15.302,6.942-23.283,9.7c-0.188,0.054-0.375,0.111-0.564,0.164
			c-2.215,0.621-4.441,1.197-6.679,1.729c-2.082,0.496-4.174,0.95-6.273,1.369c1.016-0.156,2.24-0.342,3.723-0.565
			c-1.259,0.189-2.515,0.401-3.775,0.587c-0.05,0.007-0.1,0.013-0.15,0.02c-0.015,0.003-0.03,0.006-0.045,0.009
			c-0.742,0.11-1.505,0.224-2.282,0.345c0.491-0.079,1.107-0.176,1.862-0.293c-2.523,0.349-5.05,0.662-7.585,0.907
			c-0.7,0.068-1.4,0.122-2.1,0.18c-1.736,0.045-3.472,0.08-5.21,0.073c-0.972-0.004-1.944-0.028-2.916-0.048
			c-1.713-0.133-3.934-0.301-4.829-0.397c-2.171-0.233-4.331-0.529-6.492-0.834c-0.473-0.092-0.946-0.18-1.417-0.278
			c-2.831-0.585-5.648-1.238-8.448-1.957C459.737,1320.916,457.845,1320.368,455.951,1319.823z"/>
		<path d="M444.8,746.6c-0.07-0.007-0.144-0.015-0.216-0.022c0.117,0.017,0.23,0.033,0.352,0.05
			C444.891,746.619,444.846,746.61,444.8,746.6z"/>
		<path d="M501.109,1323.7c0.067-0.013,0.134-0.028,0.202-0.042c-0.234,0.036-0.455,0.07-0.666,0.103
			C500.799,1323.74,500.954,1323.722,501.109,1323.7z"/>
		<path d="M662.889,831.054c19.776,21.413,41.948,38.993,67.718,52.739c25.895,13.813,55.182,22.434,84.332,25.572
			c16.56,1.783,32.894,1.841,49.425,0.707c1.679-0.094,3.276-0.213,4.748-0.344c0.477-0.039,0.971-0.09,1.474-0.149
			c28.769-2.749,57.85-10.923,83.4-24.472c25.349-13.443,46.919-30.849,65.974-52.23c36.916-41.422,57.966-95.95,64.631-150.628
			c7.761-63.673-5.334-129.376-25.73-189.592c-19.769-58.361-49.484-113.503-91.639-158.732
			c-39.713-42.609-93.179-70.918-152.426-70.258c-29.26,0.326-59.278,6.69-85.116,20.764c-23.473,12.786-42.978,29.639-60.19,50.041
			c-36.435,43.188-57.394,98.216-70.062,152.671c-7.208,30.981-11.41,62.655-12.873,94.423c-1.474,32.021-0.744,64.682,4.442,96.364
			C600.225,734.315,623.929,788.868,662.889,831.054z M670.858,515.557c0.769-4.46,1.6-8.908,2.489-13.344
			c0.3,0.009,0.602,0.014,0.908-0.002c12.966-0.64,34.74-25.609,81.335-82.433c15.557-18.973,31.645-38.592,44.914-53.243
			c9.169-10.123,15.313-15.966,19.359-19.339c-4.447,8.371-14.852,24.66-38.925,56.127c-24.536,32.073-54.765,68.953-79.054,98.586
			c-11.905,14.524-22.187,27.068-29.418,36.148c-2.357,2.96-4.302,5.443-5.881,7.507
			C667.724,535.524,669.141,525.515,670.858,515.557z M682.978,462.718c3.981-13.15,8.551-26.231,13.812-39.042
			c7.33-5.604,20.741-18.174,47.347-46.484c2.455-2.612,4.898-5.227,7.305-7.814c-15.051,21.985-33.706,47.55-50.178,70.122
			c-7.2,9.866-13.717,18.797-19.194,26.417C682.369,464.85,682.671,463.783,682.978,462.718z M668.102,564.34
			c5.373-0.109,13.681-3.781,55.755-46.93c17.806-18.261,38.062-39.92,57.815-61.257L663.67,609.275
			c-0.192,0.249-0.356,0.51-0.508,0.776c-0.092-15.438,0.463-30.884,1.676-46.278C665.852,564.168,666.957,564.363,668.102,564.34z
			 M898.328,860.847c-4.906,2.559-9.926,4.898-15.045,6.998c-1.953,0.802-7.426,2.668-6.937,2.537
			c-0.694,0.219-1.385,0.447-2.083,0.654c-2.568,0.763-5.154,1.467-7.754,2.111c-1.393,0.345-4.097,0.873-5.85,1.213
			c-3.77,0.58-7.549,1.074-11.357,1.431c-2.878,0.089-5.758,0.109-8.638,0.055c-0.726-0.014-1.451-0.04-2.176-0.064
			c-1.626-0.145-3.251-0.299-4.874-0.491c-2.642-0.313-5.277-0.685-7.902-1.117c-0.178-0.038-0.34-0.073-0.475-0.103
			c-5.401-1.2-10.747-2.65-16.016-4.339c-0.393-0.126-0.785-0.258-1.177-0.39c-2.416-0.912-4.815-1.873-7.192-2.882
			c-5.142-2.184-10.189-4.592-15.126-7.207c-1.103-0.584-2.201-1.179-3.292-1.783c-0.411-0.227-1.291-0.732-2.021-1.15
			c-0.019-0.011-0.043-0.026-0.06-0.036c-1.43-0.879-2.849-1.776-4.257-2.69c-4.611-2.991-9.104-6.163-13.474-9.497
			c-9.642-7.356-18.628-15.519-27.014-24.272c-27.661-30.511-47.505-67.338-59.531-106.646
			c-8.761-30.978-12.153-62.841-12.814-94.986c-0.01-0.463-0.012-0.925-0.021-1.388c0.352,0.585,0.796,1.127,1.337,1.598
			c2.67,2.322,6.689,2.162,9.167-0.368c41.103-41.973,92.713-94.412,136.063-138.055c-10.301,12.596-20.964,25.684-31.568,38.768
			c-31.999,39.483-57.221,71.235-74.965,94.374c-10.585,13.804-18.616,24.688-23.869,32.349c-6.814,9.94-11.738,17.122-6.604,22.255
			c2.613,2.611,6.846,2.611,9.459,0l211.271-211.271c-4.012,5.56-8.804,12-14.527,19.459c-18.962,24.71-45.288,56.948-78.247,95.817
			c-56.184,66.261-112.882,129.617-113.448,130.249c-2.369,2.646-2.258,6.681,0.253,9.191c1.702,1.701,4.036,2.588,6.57,2.514
			c12.558-0.394,40.188-29.507,122.475-122.806c27.538-31.224,56.013-63.51,79.104-87.903
			c18.287-19.319,29.357-29.533,36.006-34.921c-9.198,15.438-35.619,52.368-110.154,140.449
			c-56.673,66.972-113.756,131.118-114.326,131.758c-2.406,2.703-2.227,6.829,0.404,9.312c2.634,2.484,6.761,2.423,9.32-0.135
			l164.143-164.143c-4.11,4.907-8.247,9.844-12.37,14.764c-31.882,38.045-68.018,81.167-94.743,114.368
			c-14.569,18.1-25.115,31.71-32.242,41.608c-10.597,14.718-14.7,21.709-9.523,26.886c1.255,1.255,2.956,1.959,4.729,1.959
			c0.017,0,0.033,0,0.051,0c1.791-0.014,3.502-0.745,4.749-2.03C800.3,722.52,879.153,641.987,930.236,591.157
			c-18.854,23.182-41.372,50.266-61.64,74.644c-27.186,32.699-55.298,66.511-75.687,92.012
			c-11.035,13.802-18.986,24.132-24.309,31.581c-6.471,9.056-12.06,16.878-6.788,22.149c1.306,1.307,3.08,2.028,4.942,1.956
			c1.848-0.059,3.588-0.879,4.809-2.267c0.485-0.552,49.126-55.796,100.575-110.913c30.173-32.322,55.382-58.266,74.927-77.109
			c9.033-8.708,16.229-15.285,21.953-20.252c-13.474,16.68-33.189,39.922-51.452,61.451
			c-28.769,33.914-61.376,72.353-85.553,103.176c-13.268,16.915-22.705,29.868-28.853,39.602
			c-8.069,12.777-11.934,21.832-6.275,27.49c1.879,1.879,4.477,2.867,7.325,2.777c6.773-0.209,18.333-5.923,56.717-45.978
			c24.452-25.516,53.345-58.213,78.837-87.061c8.731-9.881,17.841-20.19,26.364-29.717c-1.675,2.262-3.446,4.638-5.319,7.135
			c-19.658,26.211-44.687,58.002-66.77,86.051c-15.376,19.531-29.9,37.979-40.105,51.374c-5.482,7.195-9.419,12.537-12.034,16.329
			c-3.617,5.245-7.358,10.668-2.873,15.154c1.404,1.404,3.299,2.146,5.312,2.091c5.851-0.161,11.611-5.343,64.59-64.484
			c19.482-21.749,41.565-46.4,59.811-65.444c3.761-3.926,7.143-7.385,10.186-10.436c-9.709,14.65-21.637,32.681-33.464,50.642
			c-15.918,24.172-28.546,43.494-37.531,57.429c-5.352,8.299-9.463,14.767-12.218,19.223c-1.534,2.481-2.651,4.342-3.415,5.689
			c-1.18,2.08-3.635,6.407,0.093,10.134c1.73,1.729,4.075,2.665,6.652,2.665c0.185,0,0.371-0.005,0.558-0.015
			c1.368-0.071,3.196-0.167,6.482-1.852c-3.162,1.849-8.076,4.535-0.738,0.61C902.992,858.252,900.695,859.613,898.328,860.847z
			 M881.889,868.583c-1.572,0.516-3.142,1.033-4.716,1.54C878.003,869.856,879.486,869.371,881.889,868.583z M998.304,727.451
			c-2.162,7.073-4.596,14.058-7.3,20.935c-6.88,8.347-22.365,26.941-38.977,45.593c-15.463,17.362-26.568,28.808-34.504,36.354
			c20.231-31.423,58.031-88.669,87.719-133.339C1003.464,707.259,1001.139,717.422,998.304,727.451z M944.121,825.085
			c-6.943,7.233-14.343,14.013-22.243,20.197c-2.549,1.996-5.152,3.923-7.796,5.792c8.838-6.856,23.099-20.378,47.006-47.158
			c0.077-0.086,0.153-0.172,0.229-0.257C956.022,811.115,950.281,818.266,944.121,825.085z M748.616,338.422
			c10.365-10.867,21.843-20.685,34.628-28.606c0.018-0.01,0.032-0.018,0.051-0.028c1.578-0.875,3.173-1.721,4.784-2.535
			c3.35-1.693,6.768-3.248,10.248-4.653c0.343-0.138,0.961-0.373,1.629-0.623c0.646-0.212,1.24-0.404,1.581-0.507
			c1.553-0.466,3.115-0.882,4.682-1.276c1.701-0.32,5.749-1.111,8.018-1.389c1.103-0.021,2.207-0.03,3.313-0.015
			c0.007,0,0.015,0,0.022,0.001c0.599,0.059,1.199,0.114,1.797,0.186c1.247,0.15,2.487,0.336,3.727,0.526
			c0.042,0.01,0.085,0.018,0.128,0.028c3.213,0.754,6.394,1.643,9.54,2.641c1.733,0.686,3.468,1.364,5.182,2.101
			c3.574,1.537,7.088,3.215,10.537,5.016c1.522,0.795,3.021,1.63,4.523,2.46c0.632,0.388,1.265,0.774,1.892,1.171
			c15.992,10.116,30.338,22.609,43.375,36.284c33.805,37.123,58.863,81.901,77.241,128.425
			c5.478,13.868,10.328,27.972,14.625,42.248c14.643,50.697,23.314,104.574,17.837,157.336c-1.112-0.448-2.334-0.671-3.614-0.639
			c-8.919,0.245-23.69,12.591-81.619,76.458c18.568-23.656,37.549-48.049,52.799-68.565c11.141-14.987,19.151-26.36,24.488-34.769
			c6.898-10.868,11.374-18.969,6.092-24.251c-1.421-1.42-3.341-2.163-5.374-2.104c-6.493,0.2-15.12,8.975-71.005,72.218
			c-25.084,28.386-53.514,60.559-77.592,85.745c-22.139,23.157-34.41,33.83-41.126,38.722c4.358-7.714,14.171-22.362,36.081-49.969
			c23.456-29.554,53.849-65.382,80.663-96.992c19.275-22.723,37.482-44.187,50.25-59.952c6.874-8.487,11.779-14.836,14.997-19.408
			c3.734-5.306,8.382-11.91,3.466-16.826c-1.747-1.746-4.152-2.664-6.829-2.577c-5.855,0.187-15.966,4.857-49.999,37.484
			c-15.191,14.563-33.878,33.511-55.729,56.505c25.038-30.12,50.399-60.678,69.004-83.928
			c10.737-13.418,18.474-23.453,23.649-30.677c6.86-9.575,11.817-16.493,6.599-21.711c-1.303-1.302-3.046-1.988-4.899-1.999
			c-3.527,0.027-5.137,0.039-45.334,39.689c-20.336,20.059-48.164,48.015-82.711,83.093c-17.833,18.107-35.657,36.287-51.853,52.844
			c24.498-29.992,54.116-65.335,80.606-96.946c23.979-28.615,46.63-55.644,62.912-75.604c8.736-10.709,15.036-18.643,19.26-24.253
			c2.383-3.166,4.094-5.577,5.231-7.371c1.225-1.933,4.479-7.067,0.337-11.208c-2.613-2.611-6.848-2.612-9.459,0l-117.71,117.71
			c33.687-39.995,60.022-72.524,78.299-96.715c11.138-14.742,19.41-26.572,24.589-35.162c5.611-9.306,10.608-18.873,4.861-24.62
			c-1.8-1.799-4.249-2.751-6.986-2.659c-5.769,0.181-15.097,3.714-52.987,43.603c-9.732,10.245-20.428,21.91-31.617,34.326
			c16.226-19.875,29.767-37.035,40.479-51.301c29.06-38.705,35.761-52.664,28.682-59.744c-2.613-2.611-6.846-2.611-9.459,0
			l-187.391,187.39c46.232-59.021,119.184-148.032,171.484-210.813c2.214-2.658,2.036-6.565-0.41-9.01
			c-1.255-1.255-3.01-1.977-4.784-1.977c-0.012,0-0.023,0-0.034,0c-3.577,0.019-4.321,0.023-41.834,37.168
			c-18.898,18.714-44.905,44.801-77.295,77.536c-11.165,11.285-22.337,22.599-33.059,33.472l127.739-165.757
			c2.052-2.663,1.809-6.436-0.569-8.813c-1.317-1.317-3.161-2.053-5.03-2.012c-4.742,0.097-5.597,0.114-67.608,67.392
			c-25.92,28.121-55.298,59.993-80.126,85.557c-1.074,1.105-2.126,2.186-3.154,3.238c25.814-31.494,57.625-70.34,82.622-103.363
			c40.802-53.904,44.707-66.665,37.826-73.545c-1.987-1.987-4.711-3.003-7.649-2.855c-12.863,0.635-34.529,25.484-80.898,82.033
			c-15.636,19.068-31.804,38.785-45.159,53.521c-1.186,1.308-2.32,2.544-3.407,3.713c4.83-6.676,10.139-13.951,15.39-21.147
			c17.991-24.656,38.384-52.601,54.075-75.84c8.669-12.839,14.845-22.676,18.883-30.072c4.803-8.799,8.685-17.126,3.509-22.303
			c-1.303-1.302-3.089-2.005-4.926-1.956c-1.841,0.054-3.578,0.865-4.803,2.242c-23.086,25.97-48.279,53.139-66.825,71.883
			C722.157,372.353,734.236,354.457,748.616,338.422z"/>
		<path d="M1800.853,766.291c-0.573-0.421-1.153-0.831-1.733-1.24c-0.084-0.054-0.169-0.106-0.253-0.16
			c1.111,0.801,1.884,1.35,2.391,1.704C1801.122,766.496,1800.989,766.391,1800.853,766.291z"/>
		<path d="M1976.777,992.044c-4.722-58.791-18.682-119.123-47.06-171.215c-25.057-45.996-62.731-84.942-113.274-101.738
			c-28.536-9.482-60.962-11.659-90.448-5.622c-30.785,6.303-58.073,18.795-83.75,36.752c-22.282,15.583-41.578,35.096-58.655,56.166
			c-20.204,24.931-37.725,51.663-52.411,80.207c-14.783,28.734-26.841,58.884-36.074,89.848
			c-9.506,31.879-17.013,64.908-19.535,98.143c-4.315,56.868,6.908,116.484,34.834,166.492
			c27.653,49.517,71.052,87.466,124.504,106.654c13.503,4.847,27.706,8.126,41.882,10.301c0.492,0.084,0.974,0.162,1.435,0.227
			c33.203,4.676,66.651,2.435,99.077-5.889c28.446-7.302,54.593-20.665,78.595-37.34c45.591-31.676,79.902-79.966,99.174-131.674
			C1977.533,1123.093,1981.892,1055.726,1976.777,992.044z M1875.446,1185.496c-6.04,3.25-13.636,10.167-23.633,21.009
			c4.451-6.35,8.832-12.653,13.032-18.77c8.719-12.695,15.961-23.567,21.648-32.496
			C1883.333,1165.516,1879.657,1175.624,1875.446,1185.496z M1891.045,1117.036c-34.021,35.405-80.31,83.07-116.274,119.292
			c37.792-50.357,90.262-120.187,125.48-167.041c-0.541,8.539-1.272,17.062-2.204,25.556c-0.74,6.746-1.609,13.469-2.64,20.163
			C1893.756,1115.12,1892.198,1115.835,1891.045,1117.036z M1770.119,751.847c-2.706-0.523-4.177-0.832-4.843-0.991
			c0.23,0.01,0.459,0.017,0.689,0.026c0.688,0.123,1.572,0.302,2.321,0.486C1768.898,751.52,1769.508,751.686,1770.119,751.847z
			 M1651.638,825.104c13.576-16.574,28.514-32.087,45.263-45.482c3.75-2.999,7.606-5.841,11.507-8.638
			c0.433-0.284,0.866-0.57,1.302-0.85c2.279-1.465,4.585-2.886,6.922-4.256c3.866-2.267,7.812-4.4,11.835-6.374
			c2.149-1.054,4.32-2.064,6.512-3.024c0.044-0.019,0.088-0.037,0.131-0.056c0.265-0.099,0.529-0.201,0.794-0.299
			c3.971-1.459,8.005-2.749,12.091-3.847c0.349-0.094,0.7-0.178,1.05-0.268c1.366-0.253,2.734-0.495,4.11-0.7
			c1.385-0.207,2.774-0.374,4.165-0.531c1.835-0.047,3.671-0.059,5.507-0.017c2.53,0.302,5.039,0.699,7.543,1.149
			c0.336,0.089,0.674,0.171,1.01,0.263c2.054,0.565,4.093,1.184,6.114,1.855c0.795,0.264,1.582,0.551,2.368,0.836
			c-5.527-2.044-1.584-0.704,1.139,0.41c0.835,0.309,1.669,0.621,2.506,0.926c-0.87-0.317-1.623-0.592-2.293-0.838
			c0.323,0.134,0.623,0.263,0.882,0.381c4.088,1.861,8.078,3.934,11.958,6.198c1.625,0.948,3.227,1.936,4.813,2.948
			c-0.477-0.344-1.009-0.728-1.619-1.17c0.62,0.449,1.246,0.889,1.872,1.33c0.168,0.108,0.339,0.212,0.507,0.32
			c1.382,0.894,3.705,2.673,1.631,1.224c3.782,2.799,7.439,5.768,10.962,8.887c7.307,6.467,14.015,13.564,20.251,21.061
			c26.443,33.956,43.302,74.65,54.271,116.043c11.646,46.805,16.09,95.366,14.184,143.586c-2.766-1.689-6.409-1.161-8.566,1.369
			c-0.464,0.543-46.889,54.964-96.385,108.899c-29.014,31.615-53.377,56.866-72.412,75.051
			c-18.381,17.56-29.036,25.864-35.074,29.783c7.653-13.409,31.409-47.595,103.648-134.437
			c52.629-63.267,105.539-123.877,106.067-124.482c2.315-2.65,2.181-6.641-0.308-9.129c-1.649-1.648-3.912-2.523-6.413-2.453
			c-3.763,0.101-10.161,0.271-46.982,35.077c5.339-6.766,10.224-13.086,14.644-18.946c33.434-44.322,36.226-56.271,29.682-62.814
			c-1.419-1.419-3.955-3.063-7.948-2.933c-5.307,0.196-17.637,0.651-87.061,70.818c17.005-20.774,31.484-38.575,43.295-53.227
			c12.592-15.621,22.262-27.801,28.739-36.204c3.524-4.571,6.192-8.141,7.932-10.609c2.487-3.531,5.895-8.367,1.626-12.635
			c-1.309-1.307-3.081-2.018-4.948-1.955c-1.85,0.061-3.591,0.884-4.811,2.275c-0.608,0.695-61.668,70.284-126.032,139.324
			c-37.755,40.497-69.23,72.872-93.554,96.224c-25.502,24.486-39.167,35.155-46.323,39.794
			c8.243-14.591,36.133-53.969,127.768-159.844c64.642-74.688,129.778-146.388,130.429-147.104c2.473-2.72,2.286-6.926-0.417-9.417
			c-2.705-2.493-6.912-2.333-9.42,0.353c-0.634,0.678-64.104,68.603-129.871,136.801c-42.324,43.89-72.525,74.352-94.071,95.459
			l211.708-259.369c2.171-2.66,1.976-6.531-0.452-8.958c-1.809-1.809-4.289-2.755-7.08-2.702
			c-7.873,0.191-23.013,8.473-79.99,67.273c-5.446,5.621-11.063,11.487-16.796,17.528c16.845-20.604,31.04-38.298,42.441-52.907
			c11.832-15.161,20.773-27.156,26.574-35.654c7.847-11.494,12.24-18.844,7.096-23.989c-1.254-1.254-2.955-1.959-4.729-1.959
			c-1.773,0-3.475,0.705-4.729,1.958l-219.66,219.661c4.006-5.762,8.944-12.59,15.033-20.675
			c17.626-23.407,42.191-53.838,73.015-90.45c52.555-62.426,105.746-121.911,106.277-122.504c2.367-2.645,2.255-6.679-0.255-9.189
			c-1.34-1.34-3.14-2.064-5.053-2.031c-5.356,0.085-9.17,2.958-86.032,84.872c-26.262,27.988-53.418,56.929-76.043,80.099
			c-2.282,2.338-4.448,4.543-6.503,6.624c33.296-45.716,87.098-118.231,127.287-172.066c2.116-2.834,1.659-6.827-1.043-9.11
			c-2.704-2.284-6.716-2.067-9.156,0.493c-25.943,27.205-61.245,63.773-89.174,91.988c0.672-1.059,1.326-2.129,2.006-3.182
			C1635.983,845.995,1643.563,835.361,1651.638,825.104z M1564.708,1004.485c0.788-3.002,1.596-5.999,2.435-8.989
			c4.976-2.389,15.489-10.861,45.235-41.2c2.092-2.133,4.223-4.317,6.393-6.55c-17.121,21.093-31.216,39.165-42.108,53.993
			c-6.791,9.245-12.385,17.304-16.736,24.102C1561.351,1018.702,1562.95,1011.582,1564.708,1004.485z M1602.834,902.723
			c9.642-9.057,25.141-24.45,50.771-50.643c-5.941,8.018-12.01,16.217-18.063,24.407c-22.151,29.976-39.916,54.185-52.873,72.052
			C1588.643,932.949,1595.368,917.647,1602.834,902.723z M1758.384,1311.064c-1.329,0.5-2.658,1-3.997,1.474
			c-5.701,2.02-11.501,3.76-17.371,5.22c-0.716,0.141-1.43,0.286-2.148,0.417c-3.25,0.591-6.516,1.093-9.793,1.503
			c-1.429,0.178-2.861,0.325-4.294,0.47c-2.801,0.105-5.599,0.188-8.405,0.169c-2.365-0.015-7.701-0.43-9.388-0.544
			c-1.416-0.161-2.832-0.333-4.247-0.532c-2.729-0.404-5.449-0.861-8.159-1.382c-0.405-0.1-0.811-0.195-1.215-0.298
			c-5.641-1.451-11.209-3.185-16.678-5.192c-0.505-0.186-1.007-0.381-1.51-0.573c-2.23-0.99-4.46-1.975-6.659-3.036
			c-5.206-2.512-10.29-5.277-15.233-8.274c-2.479-1.503-4.883-3.111-7.322-4.675c8.887,5.699,0.5,0.254-1.584-1.299
			c-4.517-3.366-8.886-6.929-13.099-10.669c-7.916-7.029-15.236-14.684-22.018-22.804c-21.198-27.112-36.037-58.61-44.952-91.789
			c-8.684-35.834-9.885-72.067-5.903-108.053c2.051,0.334,4.227-0.283,5.809-1.865l194.938-194.938
			c-18.171,22.946-44.186,54.908-81.373,99.42c-59.17,70.826-118.262,139.435-118.852,140.12c-2.286,2.652-2.139,6.618,0.337,9.094
			c1.357,1.358,3.192,2.063,5.116,2.033c5.373-0.131,8.709-2.716,82.205-83.708c36.671-40.411,78.233-86.213,114.22-123.413
			c17.405-17.991,30.669-30.977,40.767-40.342l-230.619,282.538c-2.171,2.66-1.976,6.531,0.452,8.959
			c1.416,1.416,3.329,2.19,5.4,2.19c0.047,0,0.095-0.001,0.143-0.001c4.184-0.071,10.623-0.177,83.909-73.655
			c-14.525,17.523-26.948,32.926-37.175,46.096c-12.698,16.353-22.149,29.456-28.092,38.946
			c-7.704,12.306-11.393,21.019-5.984,26.428c1.33,1.33,3.701,2.905,7.419,2.769c10.054-0.329,34.857-15.021,135.676-121.742
			c-40.374,48.944-83.484,100.892-119.806,144.472c-2.351,2.821-1.988,7.009,0.813,9.384c2.8,2.373,6.99,2.049,9.39-0.733
			c0.582-0.675,58.885-68.217,120.599-134.994c36.192-39.162,66.446-70.388,89.92-92.812c27.515-26.283,40.819-35.718,47.005-39.081
			c-2.986,6.558-11.373,20.843-34.707,51.066c-19.965,25.857-47.833,59.533-82.83,100.091
			c-33.132,38.396-66.51,75.821-89.748,101.627c-18.686,20.483-30.773,33.938-31.032,34.226c-2.459,2.738-2.243,6.949,0.482,9.422
			c2.724,2.474,6.938,2.279,9.424-0.434c0.278-0.303,12.388-13.521,31.008-34.198c21.33-23.383,51.272-55.941,82.002-88.495
			c36.384-38.545,62.739-65.296,81.83-83.856c-19.647,22.972-43.514,51.125-66.962,79.414
			c-32.106,38.731-57.169,70.146-74.491,93.369c-10.378,13.913-18.1,25.063-22.949,33.138c-5.334,8.881-10.08,18.012-4.572,23.52
			c1.395,1.395,3.873,3.031,7.778,2.869c9.529-0.38,31.088-12.447,112.65-100.361c-18.435,24.548-36.265,48.302-50.16,66.833
			c-8.203,10.94-15.035,20.062-19.812,26.452c-2.393,3.202-4.271,5.72-5.548,7.439c-0.648,0.873-1.144,1.544-1.476,1.997
			c-3.605,4.92-0.775,8.413,0.178,9.365c1.313,1.314,3.068,2.045,4.946,2.01c3.317-0.033,4.982-0.05,34.503-29.054
			c14.68-14.423,34.647-34.518,59.349-59.727c17.487-17.847,34.929-35.79,49.363-50.689c-4.37,6.566-9.541,14.191-15.665,23.049
			c-21.309,30.822-46.577,65.671-61.675,86.492c-4.603,6.347-8.377,11.552-10.984,15.187c-1.328,1.851-2.359,3.302-3.051,4.299
			c-1.154,1.662-4.219,6.079-0.225,10.08c0.444,0.443,0.936,0.817,1.459,1.133c-3.311,1.811-6.664,3.542-10.069,5.167
			C1763.246,1308.935,1760.82,1310.01,1758.384,1311.064z M1837.387,1250.048c-8.197,9.854-17.057,19.14-26.651,27.649
			c-2.222,1.97-4.488,3.89-6.782,5.776c5.648-6.504,12.672-14.913,21.63-25.736c11.171-13.497,22.694-27.42,33.037-38.851
			C1852.264,1229.718,1845.181,1240.133,1837.387,1250.048z"/>
		<path d="M1781,755.278c-0.378-0.14-0.76-0.272-1.139-0.41c0.398,0.147,0.852,0.314,1.352,0.498
			C1781.143,755.336,1781.071,755.307,1781,755.278z"/>
		<path d="M1287.379,901.602c13.751,4.03,28.072,6.735,42.347,8.082c0.405,0.047,0.797,0.088,1.162,0.118
			c1.557,0.139,3.124,0.253,4.694,0.341c31.665,2.147,63.782-0.289,94.147-10.019c27.772-8.9,53.833-22.154,76.809-40.218
			c43.869-34.489,75.365-83.574,91.616-136.681c18.882-61.703,19.572-128.36,10.623-191.913
			c-8.177-58.07-25.454-117.059-56.715-167.087c-27.548-44.086-67.53-80.832-118.727-94.294
			c-60.426-15.888-124.038-0.738-172.582,37.859c-46.058,36.619-79.43,88.669-102.954,141.981
			c-13.462,30.509-23.927,62.404-31.642,94.838c-7.337,30.846-12.381,62.684-12.958,94.431
			c-1.034,56.883,13.431,115.61,44.156,163.798C1187.645,850.341,1233.207,885.725,1287.379,901.602z M1241.116,439.93
			l80.814-80.815c-5.453,7.892-12.393,17.583-21.217,29.473c-23.347,31.458-52.16,68-73.199,94.683
			c-3.441,4.364-6.707,8.506-9.739,12.361C1224.454,476.644,1232.201,457.991,1241.116,439.93z M1198.491,567.162
			c2.196-11.479,4.803-22.872,7.765-34.174c0.129-0.13,0.258-0.261,0.377-0.403c0.403-0.478,40.781-48.373,84.069-95.866
			c56.613-62.111,82.005-83.813,93.103-91.344c-3.905,6.084-11.333,16.28-25.362,33.335c-17.862,21.714-40.994,48.078-65.484,75.989
			c-27.275,31.085-55.479,63.229-75.625,88.247c-7.99,9.922-14.252,18.146-18.973,24.918
			C1198.405,567.63,1198.446,567.396,1198.491,567.162z M1194.362,600.594c1.867-0.076,3.617-0.93,4.826-2.355
			c0.499-0.588,50.519-59.479,103.802-117.658c31.236-34.105,57.451-61.281,77.917-80.773
			c12.126-11.549,21.116-19.324,27.745-24.553c-13.93,16.82-36.046,42.529-57.693,67.694
			c-36.142,42.013-77.105,89.631-108.95,128.79c-17.493,21.512-30.114,37.859-38.584,49.976
			c-6.908,9.883-11.356,17.089-12.733,22.523c0.02-14.556,0.954-29.137,2.645-43.69
			C1193.675,600.586,1194.016,600.608,1194.362,600.594z M1420.478,855.776c-0.781,0.554-1.626,1.179-2.439,1.451
			C1417.739,857.326,1419.246,856.469,1420.478,855.776z M1441.908,840.509c-4.464,3.593-9.066,7.014-13.798,10.246
			c-2.258,1.542-4.544,3.042-6.86,4.495c-0.217,0.136-0.444,0.293-0.676,0.457c-0.639,0.366-1.275,0.74-1.916,1.1
			c-4.703,2.642-9.511,5.097-14.414,7.348c-2.437,1.119-4.897,2.186-7.379,3.203c-1.333,0.546-2.672,1.078-4.017,1.594
			c-0.202,0.077-0.486,0.183-0.804,0.301c-0.273,0.092-0.511,0.171-0.68,0.226c-1.17,0.379-2.345,0.747-3.523,1.102
			c-2.746,0.829-5.512,1.594-8.295,2.292c-1.741,0.437-3.493,0.823-5.244,1.207c-1.008,0.167-2.016,0.339-3.027,0.488
			c-3.053,0.448-6.117,0.818-9.19,1.105c-0.116,0.011-0.249,0.023-0.392,0.035c-3.076,0.099-6.154,0.118-9.23,0.054
			c-0.63-0.013-1.259-0.036-1.888-0.058c-3.799-0.359-7.568-0.854-11.33-1.434c-1.761-0.338-4.38-0.849-5.755-1.189
			c-2.401-0.594-4.789-1.24-7.162-1.935c-2.763-0.81-5.482-1.737-8.218-2.629c11.991,3.909,1.372,0.409-1.394-0.726
			c-5.119-2.101-10.139-4.44-15.045-6.998c-1.99-1.038-3.948-2.129-5.902-3.229c-1.167-0.741-2.344-1.464-3.503-2.217
			c-4.688-3.043-9.242-6.291-13.653-9.722c-8.193-6.372-15.85-13.386-23.02-20.882c-25.138-27.932-43.011-61.623-53.951-97.486
			c-7.1-25.269-10.46-50.932-10.897-76.698c0.404,1.077,1.049,2.056,1.946,2.954c1.773,1.774,4.249,2.71,6.954,2.622
			c5.917-0.182,19.514-0.596,132.495-120.266c-42.61,51.924-89.707,108.828-128.715,155.698c-2.212,2.657-2.033,6.563,0.411,9.007
			c1.427,1.427,3.367,2.214,5.447,2.16c5.204-0.083,13.068-0.21,146.437-138.102c31.181-32.238,62.083-64.666,85.874-89.764
			c-4.167,5.119-8.858,10.769-14.141,17.007c-28.495,33.652-65.23,74.115-100.756,113.247
			c-29.359,32.338-57.09,62.883-76.931,86.068c-10.703,12.507-18.31,21.935-23.253,28.823c-4.768,6.642-11.297,15.738-5.473,21.563
			c1.265,1.265,3.055,1.985,4.861,1.989c3.616-0.022,4.97-0.031,50.108-44.659c12.213-12.075,26.853-26.682,43.782-43.687
			c-18.421,22.017-33.71,41.044-45.689,56.868c-12.053,15.919-20.903,28.81-26.305,38.313c-5.834,10.265-10.38,20.618-4.186,26.812
			c1.255,1.255,3.006,1.976,4.78,1.976c0.01,0,0.021,0,0.03,0c3.639-0.017,4.396-0.021,48.208-43.451
			c20.966-20.783,49.407-49.288,84.606-84.796c-33.472,39.879-59.804,72.305-78.319,96.443
			c-11.528,15.029-20.151,27.022-25.631,35.646c-6.448,10.147-11.336,18.997-5.811,24.522c1.255,1.255,2.956,1.959,4.729,1.958
			c0.021,0,0.042,0,0.063,0c1.796-0.017,3.509-0.755,4.755-2.049c56.631-58.822,132.017-136.282,184.536-188.752l-160.933,204.506
			c-2.205,2.802-1.824,6.84,0.864,9.181c2.69,2.34,6.741,2.16,9.213-0.409c63.377-65.916,153.347-158.262,195.874-199.313
			c-4.052,5.548-9.194,12.294-15.72,20.493c-18.645,23.427-43.174,52.082-66.895,79.793c-22.872,26.721-44.477,51.959-60.127,71.656
			c-8.501,10.698-14.504,18.834-18.354,24.875c-3.391,5.32-9.064,14.224-3.412,19.877c1.307,1.306,3.139,2.035,4.978,1.994
			c4.509-0.093,4.877-0.101,56.799-56.51c24.564-26.687,52.406-56.934,76.558-81.82c7.002-7.215,13.01-13.262,18.161-18.328
			l-105.569,152.64c-1.968,2.846-1.44,6.724,1.217,8.94c1.246,1.039,2.767,1.553,4.283,1.552c1.718,0,3.431-0.659,4.73-1.958
			l99.242-99.243l-2.849,6.448c-10.514,20.277-23.462,39.255-38.83,56.29C1457.623,826.898,1450.009,833.989,1441.908,840.509z
			 M1523.987,712.954c-1.101,3.606-2.27,7.19-3.502,10.752l-70.402,70.401l82.149-118.777
			C1530.253,688.026,1527.49,700.586,1523.987,712.954z M1534.688,655.777c-0.909-0.306-1.879-0.462-2.881-0.435
			c-5.307,0.11-13.489,3.718-54.782,46.096c-14.531,14.913-30.905,32.342-46.846,49.511c2.626-3.07,5.279-6.17,7.95-9.29
			c65.075-76.022,92.119-109.66,98.945-126.449C1536.824,628.792,1536.035,642.336,1534.688,655.777z M1300.575,350.477
			c11.95-12.674,24.979-24.371,39.41-34.167c1.688-1.146,3.393-2.265,5.117-3.355c0.445-0.281,0.893-0.558,1.341-0.836
			c3.223-1.801,6.468-3.547,9.799-5.147c3.138-1.508,6.332-2.895,9.567-4.18c-5.229,1.984-2.78,0.81-0.896,0.197
			c0.63-0.205,1.26-0.404,1.891-0.606c0.012-0.005,0.024-0.01,0.037-0.015c0.886-0.344,1.784-0.66,2.669-1.007
			c-0.844,0.331-1.586,0.62-2.249,0.876c1.364-0.433,2.73-0.857,4.108-1.245c1.724-0.485,3.458-0.933,5.201-1.345
			c1.112-0.163,2.224-0.316,3.338-0.455c1.655-0.095,4.172-0.234,6.187-0.27c1.518,0.167,3.034,0.352,4.544,0.577
			c0.085,0.013,0.174,0.027,0.264,0.041c-0.787-0.174-1.698-0.376-2.726-0.606c0.003,0,0.006,0,0.009,0
			c0.907,0.201,1.813,0.402,2.719,0.606c3.15,0.503,8.923,1.968,0.014,0.003c0.645,0.145,1.29,0.289,1.931,0.449
			c1.57,0.391,3.121,0.832,4.666,1.293c-0.724-0.165,6.276,2.219,8.583,3.25c3.61,1.614,7.148,3.389,10.606,5.307
			c0.184,0.102,0.367,0.208,0.55,0.312c0.002,0.001,0.004,0.002,0.006,0.004c1.875,1.172,3.723,2.385,5.546,3.636
			c3.397,2.332,6.702,4.799,9.915,7.379c6.764,5.434,13.072,11.395,19.04,17.687c31.455,35.244,51.846,79.413,65.4,124.341
			c12.86,44.756,19.646,91.917,19.987,138.867c-0.278-0.367-0.584-0.719-0.922-1.057c-1.321-1.321-3.08-2.013-4.981-2.021
			c-3.477,0.034-5.575,0.055-42.751,36.589c-18.742,18.418-44.248,44.084-75.811,76.285c-5.832,5.95-11.655,11.903-17.412,17.799
			l134.845-171.355c2.095-2.662,1.869-6.47-0.526-8.865c-1.322-1.323-3.062-2.071-4.989-2.024
			c-3.632,0.034-5.824,0.055-47.28,40.817c-21.014,20.661-49.634,49.454-85.066,85.578c-26.81,27.333-53.548,54.818-75.036,76.976
			c17.722-22.884,44.393-55.867,84.495-103.403c58.232-69.028,116.668-135.424,117.251-136.086c2.395-2.719,2.188-6.851-0.465-9.318
			c-2.656-2.468-6.792-2.373-9.327,0.213c-81.73,83.259-198.246,201.172-244.509,246.255c5.53-8.548,13.921-20.409,26.638-36.81
			c20.729-26.733,49.777-61.52,86.342-103.394c62.339-71.391,125.707-139.478,126.34-140.157c2.496-2.681,2.372-6.872-0.279-9.399
			c-2.652-2.528-6.844-2.452-9.402,0.17c-64.455,66.053-150.249,153.345-208.112,211.084c15.223-17.068,32.49-36.088,50.414-55.832
			c37.891-41.735,77.071-84.892,106.306-119.824c15.961-19.07,27.269-33.673,34.57-44.645c9.066-13.624,13.819-23.982,7.546-30.256
			c-1.281-1.281-3.005-1.988-4.838-1.958c-1.811,0.029-3.532,0.792-4.771,2.114c-0.613,0.655-62.122,66.251-125.808,132.167
			c-35.277,36.513-61.85,63.435-81.854,83.256c21.268-25.7,46.585-56.362,71.691-86.935c36.379-44.299,65.215-79.754,85.706-105.382
			c12.191-15.249,21.538-27.157,27.78-35.396c3.453-4.558,5.953-7.982,7.644-10.469c2.244-3.302,5.635-8.291,1.384-12.541
			c-1.305-1.305-3.104-2.011-4.934-1.956c-1.845,0.057-3.583,0.873-4.806,2.255c-0.564,0.639-57.188,64.636-116.847,128.356
			c-34.994,37.377-64.16,67.336-86.687,89.045c-19.854,19.134-31.966,29.31-39.262,34.719c6.514-10.051,20.113-28.617,48.199-62.903
			c30.977-37.814,69.493-82.588,103.476-122.09c21.199-24.644,39.508-45.926,52.8-61.813c7.105-8.492,12.21-14.768,15.607-19.188
			c4.852-6.312,9.041-11.762,4.313-16.491c-1.456-1.456-4.059-3.151-8.149-2.988c-5.406,0.221-18.441,0.758-89.864,74.819
			c14.014-16.152,26.805-31.156,37.384-44.213c10.017-12.363,17.081-21.795,21.596-28.836c3.563-5.557,10.195-15.901,4.071-22.025
			c-1.403-1.403-3.881-3.035-7.817-2.875c-7.767,0.332-23.473,8.371-73.769,60.61c12.471-17.028,21.903-30.728,28.053-40.746
			c8.979-14.627,12.813-23.586,7.368-29.031c-2.613-2.611-6.848-2.611-9.459,0l-77.547,77.547c3.628-5.628,7.39-11.17,11.295-16.611
			C1284.307,369.623,1292.167,359.811,1300.575,350.477z M1400.54,302.211c-0.025-0.008-0.049-0.015-0.073-0.023
			C1400.491,302.196,1400.516,302.203,1400.54,302.211z"/>
		<path d="M1366.803,302.382c-0.334,0.13-0.661,0.277-0.994,0.409c0.429-0.163,0.915-0.349,1.451-0.556
			C1367.107,302.284,1366.955,302.333,1366.803,302.382z"/>
		<path d="M1390.904,299.539c-0.001,0-0.002,0-0.002,0c0.005,0.001,0.011,0.002,0.016,0.004
			C1390.914,299.541,1390.909,299.54,1390.904,299.539z"/>
		<path d="M1494.889,1896.014c0.429-0.155,0.859-0.307,1.288-0.462c0.021-0.008,0.043-0.016,0.063-0.024
			c0.113-0.043,0.224-0.091,0.337-0.134C1491.952,1896.964,1493.296,1896.563,1494.889,1896.014z"/>
		<path d="M1096.324,1857.74c0.159-0.004,0.307-0.007,0.458-0.01c-0.117,0.002-0.234,0.002-0.351,0.004
			C1096.395,1857.736,1096.359,1857.738,1096.324,1857.74z"/>
		<path d="M1383.333,1904.414c0.737,0.104,1.472,0.217,2.21,0.317c0.842,0.114,1.685,0.22,2.528,0.326
			c0.198,0.022,0.397,0.041,0.595,0.063C1384.926,1904.593,1383.516,1904.417,1383.333,1904.414z"/>
		<path d="M1015.072,1019.118C1018.828,1016.992,1016.385,1018.285,1015.072,1019.118L1015.072,1019.118z"/>
		<path d="M1707.736,1537.061c-16.391-27.5-37.823-50.352-61.264-71.915c-53.894-49.577-102.08-104.896-146.818-162.78
			c-39.141-50.643-75.489-103.335-113.783-154.605c-31.425-42.074-64.43-84.23-104.943-118.029
			c-39.159-32.668-85.192-54.876-136.099-61.206c-60.519-7.526-124.572-1.316-178.65,28.601
			c-43.896,24.284-79.612,60.529-111.445,98.756c-38.137,45.798-71.983,95.027-107.054,143.156
			c-40.964,56.216-83.406,111.434-130.636,162.576c-12.76,13.817-25.844,27.335-39.273,40.502
			c-13.262,13.002-27.304,25.183-40.529,38.211c-21.658,21.334-40.321,45.826-53.913,73.075
			c-23.821,47.756-31.677,101.209-20.506,153.573c10.696,50.14,37.161,96.901,73.151,133.222
			c38.592,38.947,88.657,66.928,142.036,79.459c39.976,9.384,80.085,11.035,120.998,9.242c38.256-1.676,76.284-7.464,113.438-16.665
			c50.573-12.523,97.815-35.042,148.059-48.442c2.701-0.72,5.41-1.408,8.128-2.06c0.32-0.077,0.922-0.215,1.557-0.361
			c0.416-0.088,0.782-0.164,1.026-0.213c5.238-1.057,10.504-1.926,15.791-2.68c0.856-0.085,1.712-0.174,2.57-0.251
			c2.247-0.2,4.497-0.351,6.747-0.487c-1.02,0.022-2.187,0.046-3.526,0.07c0.796-0.014,1.591-0.045,2.387-0.062
			c0.416-0.009,0.831-0.008,1.246-0.014c1.023-0.061,2.045-0.126,3.069-0.18c0.183-0.01,0.37-0.018,0.557-0.025
			c0.131,0.008,0.276,0.016,0.445,0.025c0.265,0.014,0.53,0.031,0.795,0.046c-0.884,0.036-2.324,0.08-4.513,0.13
			c0.871-0.012,1.742-0.028,2.613-0.03c1.395-0.004,2.789,0.011,4.183,0.032c1.897,0.113,3.793,0.235,5.688,0.395
			c1.219,0.103,2.436,0.222,3.652,0.343c5.311,0.765,10.601,1.625,15.865,2.688c0.555,0.112,1.108,0.235,1.662,0.356
			c3.027,0.716,6.043,1.476,9.049,2.278c5.774,1.54,11.508,3.228,17.209,5.021c23.826,7.49,47.064,16.704,70.608,25.009
			c29.171,10.291,58.765,18.751,89.103,24.867c38.977,7.858,78.93,11.052,118.654,11.119c1.16,0.002,2.34-0.01,3.532-0.034
			c61.44-0.69,123.409-15.45,175.273-49.235c44.26-28.832,80.684-68.104,103.397-116.031
			c22.142-46.724,30.915-98.812,20.799-149.876C1732.65,1587.272,1721.999,1560.991,1707.736,1537.061z M1655.064,1723.979
			l-112.643,112.644c10.766-15.664,26.875-37.982,50.954-69.772c33.56-44.304,67.201-86.652,71.038-91.475
			c-1.034,14.647-3.455,29.254-7.296,43.625c-0.381,1.425-0.785,2.843-1.192,4.26
			C1655.622,1723.476,1655.331,1723.712,1655.064,1723.979z M1001.631,1029.015c4.269-3.336,8.625-6.561,13.072-9.656
			c0.103-0.072,0.232-0.155,0.369-0.242c-0.097,0.055-0.176,0.1-0.281,0.159c1.071-0.605,2.082-1.383,3.113-2.053
			c2.22-1.443,4.463-2.852,6.728-4.224c8.931-5.411,18.209-10.254,27.802-14.383c2.222-0.956,4.461-1.875,6.715-2.753
			c0.277-0.108,1.19-0.345,1.687-0.592c0.351-0.123,0.701-0.248,1.053-0.367c4.938-1.668,9.941-3.144,14.994-4.42
			c0.595-0.15,1.193-0.29,1.79-0.434c2.136-0.418,4.272-0.833,6.421-1.19c1.594-0.265,3.193-0.488,4.792-0.71
			c1.044-0.1,2.088-0.201,3.133-0.285c1.25-0.101,2.501-0.182,3.751-0.256c1.266-0.018,2.531-0.036,3.797-0.033
			c0.859,0.002,1.719,0.017,2.578,0.029c1.462,0.087,2.923,0.183,4.384,0.304c0.941,0.078,1.88,0.173,2.82,0.264
			c1.697,0.241,3.393,0.489,5.085,0.775c2.008,0.34,4.002,0.736,5.999,1.129c0.901,0.219,1.803,0.435,2.701,0.667
			c5.044,1.302,10.036,2.803,14.962,4.496c0.001,0.001,0.003,0.001,0.005,0.002c0.383,0.208,1.076,0.394,1.533,0.545
			c0.076,0.027,0.151,0.053,0.227,0.08c2.574,1.003,5.128,2.058,7.66,3.163c9.417,4.108,18.528,8.902,27.301,14.245
			c2.263,1.378,4.504,2.791,6.723,4.239c0.452,0.295,2.566,1.73,2.542,1.699c0.491,0.342,0.935,0.651,1.093,0.761
			c4.442,3.115,8.79,6.362,13.054,9.716c8.665,6.818,16.97,14.087,24.977,21.666c17.402,16.471,33.409,34.37,48.665,52.828
			c35.363,42.788,67.086,88.474,99.681,133.361c37.588,51.764,76.202,102.84,118.646,150.756
			c23.164,26.15,47.403,51.354,72.865,75.277c11.754,11.044,23.878,21.634,34.823,33.508c9.734,10.56,18.726,21.813,26.751,33.726
			c6.89,10.228,13.015,20.941,18.358,32.053c15.017,32.775,22.035,68.317,20.861,103.851c-0.182-0.239-0.361-0.48-0.579-0.698
			c-1.307-1.307-3.172-2.042-5.018-1.98c-4.274,0.138-4.274,0.138-42.871,44.049c-26.2,29.809-62.082,70.633-93.857,104.008
			c-13.585,14.27-24.421,25.06-33.055,33.215c19.531-22.901,46.059-54.317,71.953-85.974c29.21-35.711,51.93-64.76,67.526-86.338
			c9.366-12.957,16.281-23.399,20.554-31.036c4.522-8.082,8.883-17.169,3.334-22.718c-1.534-1.533-3.64-2.335-5.896-2.312
			c-5.39,0.102-13.998,4.053-59.524,50.676c-25.695,26.313-56.328,59.215-86.5,91.721c6.966-8.578,14.028-17.287,21.068-25.986
			c33.466-41.349,59.97-74.466,78.776-98.432c11.194-14.267,19.764-25.423,25.471-33.161c3.167-4.296,5.456-7.535,6.995-9.902
			c1.956-3.011,5.231-8.049,1.04-12.241c-1.306-1.305-3.11-2.068-4.988-1.972c-4.106,0.128-4.106,0.128-47.356,49.128
			c-34.313,38.876-86.169,97.627-131.807,145.488c-24.952,26.168-45.605,46.512-61.385,60.467
			c-8.748,7.736-15.275,12.861-20.103,16.257c20.706-26.73,70.611-85.589,112.396-134.871
			c32.525-38.36,66.159-78.027,90.785-107.918c13.312-16.156,22.955-28.191,29.483-36.793c9.248-12.186,14.343-18.897,9.11-24.129
			c-1.341-1.342-3.74-2.929-7.47-2.822c-9.488,0.243-30.112,11.851-111.134,96.104c-7.623,7.927-15.401,16.104-23.243,24.42
			l114.142-138.789c2.266-2.755,1.97-6.805-0.672-9.201c-2.644-2.396-6.701-2.3-9.224,0.224l-214.633,214.634
			c61.248-73.819,141.296-169.993,194.419-233.748c2.289-2.747,2.012-6.809-0.629-9.22c-2.642-2.412-6.711-2.319-9.239,0.209
			l-179.237,179.237c33.641-37.38,67.612-75.542,96.015-108.891c22.575-26.507,38.841-46.691,49.727-61.71
			c16.262-22.435,19.777-31.978,13.935-37.821c-1.702-1.702-4.048-2.605-6.604-2.536c-6.259,0.163-16.393,4.53-64.483,54.811
			c-30.254,31.632-68.999,74.648-106.468,116.248c-38.153,42.36-77.605,86.162-109.033,119.03
			c-9.91,10.364-18.231,18.802-25.215,25.663c20.908-23.794,49.774-55.784,78.111-87.187
			c47.411-52.538,101.146-112.088,141.962-159.674c22.326-26.029,38.449-45.737,49.29-60.249
			c16.646-22.282,20.025-30.771,14.462-36.336c-1.264-1.263-2.946-1.966-4.768-1.959c-1.786,0.011-3.495,0.735-4.744,2.013
			c-103.145,105.501-245.628,250.152-320.82,324.292c25.797-31.152,67.32-79.765,133.931-155.558
			c84.414-96.05,168.77-189.823,169.611-190.759c2.379-2.644,2.272-6.688-0.242-9.203c-1.734-1.734-4.123-2.633-6.813-2.594
			c-4.855,0.113-14.958,0.348-85.554,68.538c-36.543,35.299-84.828,84.434-143.513,146.041
			c-31.499,33.067-62.683,66.257-90.649,96.239c28.789-33.001,63.784-72.309,104.521-117.396
			c97.336-107.734,195.004-212.508,195.979-213.554c2.491-2.672,2.378-6.848-0.254-9.38c-2.63-2.533-6.81-2.488-9.383,0.105
			c-52.149,52.503-119.466,120.208-187.294,188.326c44.537-48.771,80.867-89.666,108.396-122.026
			c22.32-26.237,39.067-47.13,49.777-62.099c15.605-21.813,18.913-31.134,13.109-36.938c-2.613-2.611-6.846-2.611-9.459,0
			l-140.092,140.093c21.516-23.902,40.369-45.327,56.454-64.159c24.629-28.834,43.013-51.896,54.642-68.546
			c16.243-23.256,19.908-34.276,13.523-40.662c-1.366-1.366-3.207-2.116-5.19-2.116c-0.025,0-0.052,0.001-0.077,0.001
			c-4.482,0.043-10.062,0.098-103.165,91.609c-48.431,47.603-114.373,113.953-195.995,197.206
			c-101.42,103.447-202.395,207.868-250.074,257.281c1.171-1.621,2.419-3.325,3.747-5.111c13.988-18.812,34.72-44.007,61.62-74.887
			c45.431-52.151,108.98-121.168,188.884-205.132c136.114-143.029,274.316-281.661,275.696-283.044
			c2.606-2.613,2.604-6.844-0.006-9.453c-1.863-1.863-5.24-4.048-10.733-3.856c-5.136,0.176-13.009,2.29-27.807,11.853
			c16.783-23.872,20.596-35.305,14.119-41.782c-1.779-1.778-4.988-3.839-10.227-3.696c-10.786,0.347-34.373,9.877-114.005,84.601
			c58.919-62.31,99.022-104.408,99.785-105.209c2.505-2.628,2.455-6.775-0.112-9.343c-1.383-1.382-3.249-2.141-5.264-2.141
			c-0.026,0-0.053,0-0.079,0.001c-4.665,0.046-11.053,0.109-114.571,101.829c-35.893,35.269-80.398,79.77-132.928,132.912
			c5.056-5.555,10.088-11.094,15.071-16.589c47.974-52.216,88.223-96.336,120.26-131.825c30.065-33.307,53.145-59.29,68.594-77.228
			c8.354-9.699,14.662-17.262,18.751-22.479c2.236-2.854,3.842-5.043,4.906-6.689c2.906-4.498,2.978-8.182,0.211-10.948
			c-1.314-1.314-3.116-2.02-4.973-1.954c-1.856,0.067-3.602,0.904-4.817,2.311c-1.148,1.328-95.908,110.878-211.909,238.802
			c-40.408,43.999-84.227,91.497-129.224,140.12c-64.687,68.762-120.045,125.182-165.046,168.198
			c-91.124,87.104-120.712,100.691-130.239,101.037c-0.734,0.028-1.253-0.04-1.583-0.138c-0.051-2.133,1.413-11.085,21.76-39.438
			c11.954-16.656,28.818-37.787,50.276-63.001c50.615-48.476,126.39-124.216,240.501-242.547
			c155.582-161.337,307.903-324.683,309.424-326.313c2.476-2.656,2.38-6.803-0.216-9.342c-2.597-2.541-6.745-2.544-9.344-0.009
			c-1.56,1.519-157.671,153.72-311.829,312.34c-90.582,93.203-162.789,170.368-214.616,229.352
			c-8.727,9.932-16.699,19.146-23.977,27.696c-20.549,19.685-38.114,35.983-52.458,48.675l584.955-639.438
			c2.415-2.641,2.325-6.714-0.205-9.244c-1.54-1.54-4.329-3.358-8.763-3.249c-10.979,0.257-36.615,13.284-123.72,96.611
			l102.829-112.467c2.454-2.683,2.314-6.834-0.313-9.347c-2.626-2.512-6.78-2.468-9.352,0.104l-66.314,66.315
			c40.568-51.685,46.478-70.34,46.594-79.99c0.069-5.793-2.207-9.3-4.129-11.222c-1.299-1.299-3.028-2.011-4.878-2.011
			c-0.027,0-0.054,0-0.08,0c-6.008,0.066-7.623,0.084-202.976,204.29c-86.918,90.857-185.433,193.837-266.63,276.134
			c-44.315,44.914-78.36,78.5-104.08,102.677c-22.715,21.351-35.368,31.926-42.374,37.155c3.306-6.194,10.22-16.791,24.597-34.615
			c17.632-21.86,43.069-50.487,77.767-87.519c64.233-68.556,148.088-152.941,229.182-234.55
			c68.665-69.101,133.522-134.37,180.481-184.035c25.223-26.676,43.237-46.688,55.073-61.178
			c15.417-18.873,22.051-29.648,15.531-36.168c-1.265-1.264-2.977-1.974-4.771-1.958c-1.789,0.011-3.498,0.738-4.747,2.019
			c-146.743,150.508-343.011,350.253-468.664,475.256l432.416-478.31c2.434-2.691,2.277-6.832-0.353-9.332
			c-2.629-2.502-6.773-2.449-9.338,0.118l-386.539,386.54c12.913-14.151,25.493-28.595,37.785-43.283
			c13.146-13.283,26.594-26.839,40.223-40.577c66.864-67.399,136.004-137.095,186.25-191.669
			c27.242-29.589,46.568-52.144,59.084-68.954c14.516-19.496,22.541-34.123,14.528-42.135c-2.613-2.611-6.846-2.612-9.459,0
			L894.158,1146.14c3.144-4.157,6.298-8.307,9.479-12.436C932.75,1095.902,963.859,1058.533,1001.631,1029.015z M1045.218,1570.114
			c-32.627,34.178-65.37,68.13-96.496,100.198c30.524-33.577,62.917-68.87,95.564-103.902
			c59.232-63.562,111.039-117.425,154.74-160.896C1157.061,1451.789,1105.563,1506.903,1045.218,1570.114z M1264.71,1351.745
			c11.868-13.699,22.463-26.228,31.738-37.527c9.754-8.285,18.512-15.317,26.228-21.053c8.442-6.275,14.941-10.485,19.912-13.3
			c-26.492,26.705-85.469,86.363-154.706,157.72C1217.657,1405.107,1243.329,1376.426,1264.71,1351.745z M540.787,1606.844
			c3.559-15.136,8.728-29.833,15.208-43.959c0.454-0.944,0.905-1.89,1.371-2.828l346.71-346.711l-365.539,404.336
			C539.197,1614.059,539.94,1610.445,540.787,1606.844z M842.278,1216.937l164.499-164.5c-1.17,1.544-2.421,3.167-3.759,4.875
			c-13.396,17.096-32.834,39.33-59.423,67.972c-39.112,42.131-88.6,92.579-139.172,143.674
			C817.182,1251.723,829.733,1234.333,842.278,1216.937z M601.621,1496.537c6.588-7.113,13.601-13.77,20.695-20.347l-24.21,24.21
			C599.266,1499.103,600.437,1497.815,601.621,1496.537z M761.693,1907.798c-0.543-0.033-1.085-0.064-1.628-0.094
			C768.569,1907.937,764.443,1907.965,761.693,1907.798z M755.917,1907.599c1.028,0.024,1.941,0.047,2.77,0.068
			C757.763,1907.642,756.84,1907.621,755.917,1907.599z M813.534,1904.807C817.609,1904.23,815.974,1904.473,813.534,1904.807
			L813.534,1904.807z M1083.264,1858.874c0.762-0.08,1.524-0.173,2.286-0.254c0.422-0.045,0.845-0.081,1.268-0.124
			C1085.818,1858.605,1084.649,1858.729,1083.264,1858.874z M1087.064,1858.47c0.669-0.095,1.338-0.196,2.007-0.287
			C1091.385,1857.866,1094.629,1857.648,1087.064,1858.47z M1101.035,1857.501c1.042-0.02,1.793-0.002,1.293,0.043
			C1101.87,1857.528,1101.433,1857.513,1101.035,1857.501z M1573.323,1849.525c-7.331,6.313-14.987,12.25-22.929,17.774
			c-0.232,0.162-2.39,1.599-1.965,1.33c-0.08,0.052-0.145,0.095-0.174,0.114c-2.03,1.335-4.077,2.643-6.141,3.925
			c-4.482,2.782-9.043,5.437-13.677,7.959c-8.596,4.678-17.442,8.898-26.491,12.627c-1.782,0.734-3.573,1.446-5.37,2.141
			c0.333-0.113,0.69-0.234,1.087-0.368c-0.498,0.168-0.992,0.347-1.487,0.526c-0.36,0.137-0.833,0.305-1.288,0.462
			c-0.236,0.085-0.471,0.172-0.708,0.254c-5.059,1.766-10.171,3.38-15.327,4.838c-2.39,0.676-4.79,1.318-7.198,1.926
			c-1.127,0.284-2.255,0.56-3.386,0.829c-5.247,1.059-10.509,2.016-15.811,2.775c-0.298,0.043-0.596,0.082-0.893,0.123
			c-2.506,0.25-5.012,0.492-7.524,0.678c-1.468,0.109-4.15,0.214-6.018,0.282c-0.984,0.015-1.969,0.033-2.954,0.035
			c-5.323-0.009-10.641-0.113-15.961-0.236c-0.38-0.018-0.76-0.033-1.141-0.053c-2.904-0.147-5.807-0.318-8.708-0.514
			c-5.068-0.343-10.13-0.761-15.185-1.258c-1.804-0.177-3.606-0.376-5.408-0.574c0.504,0.071,1.041,0.147,1.632,0.232
			c-0.741-0.106-1.484-0.201-2.227-0.295c-0.454-0.05-0.908-0.093-1.361-0.144c-1.475-0.168-3.634-0.503-3.376-0.499
			c-8.879-1.247-17.724-2.732-26.519-4.477c-1.923-0.381-3.844-0.775-5.762-1.18c-0.173-0.036-0.322-0.068-0.473-0.1
			c-0.065-0.015-0.118-0.027-0.187-0.043c-4.35-0.999-8.685-2.058-13.007-3.172c-30.815-7.942-60.598-19.019-90.455-29.911
			c-28.755-10.49-57.784-19.992-88.06-25.053c-39.866-6.664-81.284-6.601-121.078,0.58c-61.87,11.165-118.422,40.265-179.234,55.412
			c-2.054,0.512-4.112,1.011-6.172,1.497c-0.48,0.113-1.667,0.383-2.801,0.641c-1.324,0.283-2.929,0.626-3.506,0.745
			c-2.422,0.496-4.847,0.973-7.277,1.432c-8.532,1.61-17.1,2.853-25.686,4.078c-1.428,0.194-3.027,0.404-3.898,0.495
			c-2.203,0.232-4.407,0.448-6.613,0.65c-5.681,0.52-11.37,0.941-17.065,1.268c-1.779,0.102-3.559,0.181-5.339,0.265
			c-0.755,0.021-1.511,0.043-2.267,0.061c-5.623,0.132-11.251,0.207-16.875,0.123c-0.357-0.005-0.713-0.019-1.07-0.026
			c-0.495-0.028-0.991-0.054-1.486-0.086c-3.432-0.221-6.848-0.554-10.268-0.885c-1.686-0.237-3.37-0.485-5.051-0.755
			c-3.817-0.612-7.608-1.342-11.397-2.1c-1.754-0.418-3.504-0.852-5.249-1.306c-3.8-0.988-7.579-2.06-11.332-3.216
			c-3.541-1.091-7.058-2.255-10.551-3.493c-0.163-0.058-0.307-0.109-0.446-0.158c-0.14-0.054-0.285-0.11-0.449-0.173
			c-1.911-0.737-3.813-1.496-5.707-2.276c-14.114-5.815-27.732-12.828-40.683-20.907c-1.546-0.964-3.083-1.944-4.61-2.938
			c-0.763-0.497-1.515-1.016-2.283-1.507c-3.099-2.175-6.186-4.36-9.214-6.635c-5.955-4.475-11.732-9.187-17.314-14.119
			c-22.556-19.935-41.936-43.494-56.936-69.604c-3.349-5.829-6.453-11.79-9.358-17.851c-18.112-39.434-26.048-83.097-21.423-126.056
			c0.848,0.355,1.768,0.543,2.722,0.543c0.016,0,0.031,0,0.047,0c3.285-0.021,5.269-0.033,34.292-27.392
			c16.391-15.451,39.741-38.15,69.403-67.466c5.475-5.411,11.176-11.059,17.095-16.935c-6.7,7.091-13.222,14.04-19.53,20.815
			c-35.407,38.026-60.695,66.919-77.31,88.327c-22.854,29.451-28.525,43.225-20.928,50.823c1.529,1.529,3.61,2.332,5.915,2.333
			c6.178-0.068,16.518-0.184,159.674-145.108c81.924-82.937,182.054-187.604,270.396-279.949
			c82.477-86.215,161.025-168.323,187.454-193.329c-1.954,5.454-6.155,14.066-14.933,27.427
			c-13.405,20.404-34.904,47.928-63.899,81.804c-27.628,32.278-62.218,70.532-103.408,114.373l-425.447,425.446
			c-2.59,2.59-2.614,6.781-0.057,9.401c2.557,2.62,6.748,2.697,9.4,0.17c1.526-1.455,154.39-147.237,305.403-300.836
			c44.755-45.521,84.934-87.227,120.292-124.856l5.375-5.375l-300.147,328.279c-25.943,28.272-48.91,53.429-67.599,73.935
			l-51.554,56.385c-2.412,2.639-2.322,6.709,0.204,9.239c1.292,1.294,3.063,1.998,4.889,1.961c2.896-0.067,4.135-1.398,6.849-4.315
			c1.346-1.446,3.318-3.592,5.873-6.384c5.08-5.552,12.479-13.677,21.854-23.973c6.378-7.006,13.659-15.002,21.732-23.86
			l67.783-74.136c69.304-75.524,159.744-173.164,246.492-263.604c74.838-78.022,135.973-139.236,181.706-181.94
			c26.307-24.563,47.875-43.332,64.108-55.784c4.253-3.263,7.947-5.943,11.149-8.144l-606.679,663.184
			c-2.415,2.641-2.325,6.714,0.205,9.244c1.675,1.675,4.021,2.578,6.567,2.527c3.551-0.063,9.692-0.17,42.514-28.332
			c-18.943,26.848-22.276,38.087-22.317,44.412c-0.031,4.785,1.888,7.716,3.504,9.332c2.058,2.057,5.793,4.457,11.919,4.24
			c16.263-0.591,45.759-21.675,76.781-48.02c-18.599,19.934-36.731,39.347-54.229,58.062c-2.51,2.685-2.383,6.893,0.284,9.421
			c2.667,2.53,6.877,2.43,9.424-0.219c1.498-1.56,151.65-157.742,304.436-313.711c73.291-74.818,135.459-137.623,185.398-187.303
			c-49.871,52.86-108.074,114.785-165.726,176.648c-88.007,94.435-157.55,170.273-206.697,225.408
			c-29.227,32.787-51.493,58.547-66.181,76.563c-7.983,9.793-13.924,17.542-17.657,23.032c-3.724,5.476-8.823,12.976-3.631,18.168
			c1.308,1.307,3.104,2.019,4.944,1.955c1.848-0.06,3.588-0.881,4.809-2.269c1.411-1.605,142.883-162.405,289.401-318.978
			c86.001-91.901,156.872-164.37,210.646-215.394c31.812-30.184,57.861-53.053,77.426-67.971
			c22.113-16.86,31.571-20.163,35.069-20.716c-1.195,3.817-5.74,13.381-22.524,35.714c-6.207,8.259-13.666,17.703-22.334,28.28
			c-15.745,13.412-35.011,30.86-58.696,53.531c-52.59,50.333-120.572,120.303-202.06,207.966
			c-138.666,149.174-270.211,299.986-271.523,301.492c-2.369,2.718-2.157,6.824,0.479,9.284c2.636,2.461,6.747,2.388,9.295-0.163
			c1.166-1.167,91.109-91.244,199.159-202.648c-31.872,34.779-59.054,65.228-81.313,91.091
			c-26.466,30.753-46.229,55.343-58.737,73.089c-17.332,24.587-21.315,36.188-14.698,42.807c1.255,1.255,2.957,1.959,4.729,1.959
			c0.021,0,0.043,0,0.064-0.001c1.797-0.017,3.511-0.757,4.756-2.051c1.344-1.397,135.96-141.315,273.022-281.184
			c80.486-82.133,146.047-148.171,194.862-196.279c50.069-49.344,75.677-73.027,88.765-84.305
			c-3.002,4.984-7.475,11.712-14.135,20.729c-13.061,17.682-32.38,41.324-57.423,70.271
			c-42.303,48.897-101.42,113.536-175.71,192.122c-126.557,133.874-254.957,263.5-256.239,264.794
			c-2.597,2.619-2.582,6.846,0.031,9.448c2.614,2.603,6.842,2.598,9.448-0.011l498.425-498.425
			c-10.524,13.469-25.212,31.375-45.704,55.177c-38.397,44.6-91.699,103.646-158.423,175.499
			c-113.662,122.401-228.38,241.083-229.525,242.268c-2.537,2.623-2.503,6.796,0.077,9.377c1.255,1.256,2.969,1.965,4.743,1.965
			c0.003,0,0.007,0,0.01,0c3.318-0.005,3.318-0.005,26.528-22.835c12.837-12.626,31.545-31.187,55.604-55.166
			c40.508-40.375,96.75-96.67,167.162-167.321c4.5-4.516,9.005-9.036,13.502-13.55c-51.785,57.614-93.004,104.564-122.662,139.723
			c-19.322,22.906-33.922,41.037-43.393,53.889c-13.117,17.799-18.014,26.695-12.35,32.359c1.292,1.293,3.063,1.979,4.885,1.957
			c1.827-0.043,3.558-0.831,4.789-2.183c0.953-1.046,96.475-105.832,195.605-209.95c58.187-61.113,106.203-110.031,142.716-145.396
			c15.767-15.271,28.426-27.069,38.584-36.18c-34.15,38.19-87.399,97.959-139.813,157.674
			c-50.99,58.094-91.234,104.782-119.615,138.77c-16.899,20.237-29.748,36.166-38.189,47.343
			c-4.694,6.216-8.037,10.962-10.216,14.507c-2.089,3.396-5.978,9.721-1.39,14.308c1.286,1.287,3.001,1.995,4.832,1.995
			c0.014,0,0.027,0,0.04,0c3.819-0.021,5.563-0.031,66.477-60.307c31.324-30.995,74.388-74.204,127.994-128.427
			c46.809-47.347,93.667-95.014,128.327-130.335c-7.096,8.495-15.318,18.18-24.837,29.21
			c-39.867,46.197-90.725,102.556-135.595,152.279c-30.352,33.635-59.02,65.404-79.183,88.397
			c-10.781,12.296-18.533,21.396-23.7,27.822c-2.902,3.608-4.979,6.36-6.35,8.414c-1.367,2.046-4.996,7.48-0.663,11.814
			c1.754,1.753,4.187,2.68,6.819,2.61c6.403-0.167,17.48-4.774,68.188-57.67c31.841-33.213,72.028-77.832,110.894-120.982
			c36.649-40.689,74.547-82.765,104.359-114.031c24.377-25.565,38.565-38.811,46.813-45.626
			c-2.867,4.531-7.178,10.781-13.658,19.354c-11.632,15.387-27.923,35.269-49.804,60.779
			c-40.112,46.767-90.036,101.965-134.084,150.666c-26.83,29.665-50.002,55.284-66.78,74.384
			c-8.958,10.197-15.388,17.737-19.658,23.052c-2.412,3.001-4.14,5.298-5.284,7.022c-3.062,4.615-3.183,8.385-0.362,11.206
			c2.613,2.611,6.848,2.611,9.459,0l221.937-221.938c-15.345,18.445-31.503,37.875-47.613,57.259
			c-41.036,49.373-73.701,88.746-97.088,117.025c-13.891,16.797-24.621,29.818-31.896,38.703c-3.92,4.788-6.916,8.474-8.906,10.953
			c-1.052,1.311-1.852,2.321-2.382,3.011c-3.94,5.112-1.434,8.596-0.174,9.856c2.613,2.611,6.848,2.611,9.459,0l215.094-215.094
			l-182.145,221.478c-2.187,2.659-1.997,6.543,0.437,8.978c1.297,1.296,3.115,2.021,4.934,1.967
			c3.349-0.086,4.166-0.803,17.501-15.347c7.692-8.391,18.677-20.563,31.396-34.658c37.395-41.44,93.906-104.065,143.779-155.957
			c27.32-28.425,49.821-50.674,66.88-66.127c8.308-7.525,14.743-12.914,19.711-16.771c-22.789,29.253-73.768,89.377-116.644,139.945
			c-31.114,36.696-63.287,74.642-86.517,102.798c-12.531,15.19-21.605,26.486-27.741,34.534
			c-8.818,11.567-13.676,17.939-8.546,23.07c1.499,1.498,4.153,3.254,8.398,3.126c9.61-0.299,30.135-10.608,104.161-88.319
			c14.854-15.594,30.339-32.305,45.653-49.094c-36.987,45.672-76.888,94.512-110.31,135.175c-2.186,2.659-1.996,6.543,0.438,8.977
			c1.373,1.374,3.218,2.115,5.197,2.073c6.535-0.122,15.298-8.209,101.205-100.789c31.653-34.111,64.385-69.385,91.78-97.542
			c20.335-20.901,33.048-32.996,40.99-39.972c-9.635,15.822-33.15,48.924-89.878,117.98
			c-47.792,58.179-95.999,113.652-96.48,114.206c-2.306,2.651-2.167,6.634,0.317,9.118c1.346,1.345,3.694,2.915,7.333,2.914
			c0.137,0,0.274-0.002,0.414-0.006c7.928-0.256,22.996-7.826,74.645-62.039c6.395-6.713,12.954-13.726,19.564-20.886
			c-9.41,12.936-17.334,24.172-23.693,33.601c-7.029,10.424-12.242,18.79-15.492,24.868c-3.819,7.143-7.146,14.52-2.342,19.324
			c1.254,1.255,2.955,1.96,4.729,1.96c1.773,0,3.475-0.705,4.729-1.959l115.768-115.768c-1.437,2.738-2.879,5.485-4.294,8.181
			c-7.038,13.406-14.869,28.325-21.315,40.897C1598.684,1825.51,1586.55,1838.133,1573.323,1849.525z"/>
	</g>
</g>
</svg>
