<?xml version="1.0" encoding="utf-8"?>
<!-- Generator: Adobe Illustrator 27.5.0, SVG Export Plug-In . SVG Version: 6.00 Build 0)  -->
<svg version="1.1" xmlns="http://www.w3.org/2000/svg" xmlns:xlink="http://www.w3.org/1999/xlink" x="0px" y="0px"
	 viewBox="0 0 2200 2200" style="enable-background:new 0 0 2200 2200;" xml:space="preserve">
<g id="background">
	<rect style="fill:#DCE2E4;" width="2200" height="2200"/>
</g>
<g id="Objects">
	<g>
		<path d="M1601.53,1335.921c-16.713-6.875-33.627-12.771-49.604-21.34c-16.266-8.724-31.745-18.914-46.176-30.422
			c-27.841-22.201-51.728-50.103-69.416-80.997c-14.396-25.144-24.1-52.55-38.797-77.587c-13.859-23.61-30.076-45.918-49.042-65.695
			c-45.052-46.975-103.368-77.314-166.951-90.26c-74.822-15.234-156.844-9.523-227.496,20.054
			c-55.098,23.065-101.763,62.804-135.735,111.694c-14.838,21.353-27.188,44.345-37.635,68.136
			c-14.31,32.588-32.817,62.915-57.542,88.726c-25.037,26.138-54.558,47.447-87.287,62.899c-16.568,7.822-34.03,13.434-50.71,21.005
			c-15.843,7.191-31.169,15.527-45.765,25c-57.117,37.066-101.924,89.612-128.255,152.516
			c-26.665,63.703-32.037,134.798-22.165,202.741c9.412,64.778,33.142,127.651,72.794,180.042
			c37.846,50.004,90.777,88.406,151.019,106.488c67.245,20.184,141.473,17.151,207.461-6.395
			c57.963-20.682,108.611-56.54,165.667-79.137c35.769-14.166,74.768-21.588,113.832-21.667c0.35,0.004,0.7,0.015,1.05,0.016
			c0.312,0,0.623-0.017,0.934-0.021c27.794,0.121,55.594,3.964,82.261,11.774c58.882,17.245,109.25,52.287,164.939,77.13
			c64.591,28.813,136.171,38.775,205.941,25.935c62.378-11.48,120.027-43.903,162.897-90.54
			c43.901-47.759,72.953-107.573,87.087-170.695c7.274-32.486,10.737-65.853,10.809-99.129
			c-0.181-68.646-18.905-136.304-56.883-193.699C1720.826,1405.16,1664.855,1361.969,1601.53,1335.921z M985.697,1819.641
			c-0.412-0.351-0.824-0.703-1.235-1.056c-1.521-1.307-3.034-2.623-4.54-3.948c-5.401-4.756-10.698-9.63-15.896-14.608
			c-11.092-10.622-21.727-21.721-31.915-33.212c-21.547-24.304-41.563-50.885-58.443-77.875
			c-18.528-29.624-34.484-60.891-47.22-93.438c-6.415-16.394-12.002-33.117-16.656-50.096c-4.416-16.111-8.404-32.573-9.112-49.324
			c-1.302-30.813,7.488-62.39,24.462-87.934c8.629-12.986,17.437-22.55,30.493-32.001c2.347-1.699,4.102-2.853,8.171-5.155
			c3.457-1.956,7.017-3.733,10.66-5.315c0.586-0.255,1.177-0.498,1.768-0.743c0.324-0.125,0.756-0.292,0.931-0.352
			c2.193-0.758,4.378-1.516,6.604-2.175c2.295-0.678,4.609-1.285,6.943-1.817c1.034-0.236,2.072-0.444,3.109-0.663
			c0.556-0.118,0.855-0.183,1.014-0.22c-0.024,0.013,0.062,0.01,0.507-0.056c4.443-0.655,8.914-1.082,13.403-1.252
			c2.377-0.09,4.758-0.119,7.136-0.07c0.057,0.001,0.093,0.002,0.143,0.003c0.136,0.01,0.326,0.023,0.615,0.041
			c1.589,0.096,3.177,0.199,4.763,0.34c4.511,0.401,9,1.025,13.453,1.852c5.221,0.969,6.889,1.376,11.985,2.89
			c18.327,5.444,34.149,13.47,49.634,24.692c31.355,22.721,54.937,55.09,74.637,87.989c5.061,8.452,9.916,17.025,14.673,25.652
			c4.885,8.858,22.23,10.416,27.536,0.794c18.886-34.249,39.588-68.586,67.837-96.02c14.172-13.763,28.751-24.755,46.228-33.438
			c8.9-4.422,15.466-7.009,25.183-9.784c9.899-2.827,15.336-3.872,25.177-4.632c9.92-0.766,15.127-0.653,25.256,0.936
			c8.249,1.294,15.328,3.36,23.885,7.076c0.326,0.141,3.495,1.639,3.389,1.554c1.585,0.809,3.15,1.658,4.694,2.543
			c3.62,2.073,7.127,4.344,10.507,6.791c1.422,1.029,2.822,2.09,4.198,3.18c0.559,0.443,1.114,0.894,1.665,1.347
			c0.246,0.213,0.809,0.693,0.894,0.768c3.135,2.775,6.139,5.691,9,8.748c21.14,22.583,34.017,52.734,37.335,83.506
			c3.615,33.525-5.94,66.175-16.686,98.291c-11.094,33.155-25.381,64.495-42.675,94.733c-16.686,29.173-35.858,56.932-57.166,82.919
			c-18.802,22.931-39.087,44.182-62.362,64.477c-10.413,9.079-21.208,17.729-32.429,25.79c-2.343,1.683-4.713,3.326-7.084,4.968
			c-0.063,0.044-0.104,0.073-0.161,0.111c-0.004,0.003-0.006,0.004-0.011,0.007c-0.584,0.389-1.168,0.779-1.753,1.165
			c-1.447,0.956-2.901,1.9-4.363,2.833c-4.917,3.14-9.917,6.15-15.007,8.999c-4.888,2.736-9.859,5.326-14.922,7.723
			c-2.259,1.07-4.536,2.101-6.832,3.089c-1.18,0.508-2.376,0.98-3.556,1.489c-0.087,0.037-0.179,0.081-0.272,0.125
			c-0.305,0.107-0.613,0.212-0.902,0.32c-4.425,1.654-8.921,3.126-13.487,4.343c-1.895,0.505-3.802,0.967-5.72,1.377
			c-0.758,0.162-1.521,0.3-2.282,0.45c-0.331,0.053-0.662,0.107-0.994,0.152c-3.015,0.416-6.054,0.67-9.097,0.74
			c-0.679-0.001-1.359,0.001-2.039,0.004c-0.63-0.039-1.261-0.076-1.891-0.131c-2.007-0.173-4.006-0.424-5.996-0.735
			c-1.975-0.309-3.931-0.702-5.889-1.106c-0.198-0.041-0.355-0.072-0.506-0.103c-1.131-0.31-2.27-0.595-3.398-0.917
			c-9.395-2.682-18.294-6.49-27.169-10.526c-0.047-0.021-0.079-0.036-0.121-0.055c-0.413-0.206-0.826-0.41-1.237-0.618
			c-1.249-0.631-2.492-1.273-3.729-1.925c-2.544-1.341-5.064-2.725-7.564-4.146c-5.107-2.906-10.123-5.972-15.056-9.164
			c-10.912-7.061-21.419-14.743-31.57-22.855c-2.585-2.066-5.142-4.166-7.687-6.283
			C986.712,1820.499,985.977,1819.877,985.697,1819.641z M1785.711,1658.184c-0.138,63.851-13.602,128.74-43.359,185.552
			c-27.628,52.748-68.858,98.408-121.887,126.131c-56.685,29.634-122.782,36.356-186.01,23.938
			c-59.252-11.637-109.571-43.602-162.709-70.316c-27.771-13.961-56.305-26.249-86.538-33.801c-7.69-1.921-15.436-3.56-23.22-4.951
			c23.102-11.141,44.564-25.911,64.551-41.884c51.454-41.119,95.183-92.854,129.634-148.851
			c19.515-31.72,36.184-65.346,49.202-100.249c6.517-17.473,12.09-35.301,16.586-53.4c4.388-17.663,7.777-35.451,7.404-53.732
			c-1.452-71.116-50.957-141.257-124.613-149.813c-43.084-5.005-86.188,9.726-121.06,34.525
			c-34.412,24.472-60.357,59.482-81.887,95.325c-0.526,0.876-1.04,1.758-1.562,2.637c-16.778-28.303-35.679-55.547-59.533-78.233
			c-30.584-29.087-69.516-50.441-112.05-54.471c-39.268-3.721-78.492,8.043-107.463,35.215
			c-25.082,23.525-41.824,55.79-47.813,89.571c-3.008,16.964-3.74,34.443-1.257,51.519c2.739,18.831,8.057,37.587,13.676,55.737
			c10.96,35.402,25.89,69.538,43.877,101.924c32.769,58.998,75.271,113.458,126.092,157.99
			c20.929,18.339,43.192,35.403,67.543,48.977c4.622,2.577,9.339,5.066,14.138,7.413c-20.575,3.825-40.782,9.56-60.345,17.089
			c-28.251,10.872-54.987,24.803-81.617,39.106c-25.565,13.732-52.231,28.129-78.78,38.12
			c-30.834,11.604-62.778,18.504-95.671,20.063c-61.897,2.934-122.92-13.263-173.636-49.936
			c-49.007-35.437-84.409-86.913-106.09-142.913c-23.377-60.379-32.576-128.763-24.557-193.12
			c8.014-64.317,33.82-125.525,76.859-174.271c21.093-23.89,46.326-44.488,73.715-60.737c14.535-8.623,29.7-16.172,45.312-22.644
			c16.794-6.962,33.789-12.925,49.972-21.322c65.351-33.911,116.604-89.535,145.686-157.041
			c19.906-46.206,49.196-90.387,87.986-123.7c48.109-41.317,108.833-63.184,171.973-68.011
			c68.257-5.218,139.289,5.757,198.411,41.73c46.098,28.048,82.513,69.362,108.176,116.31c14.214,26.003,24.119,53.957,40.06,79.061
			c19.676,30.986,44.25,58.061,73.188,80.655c29.237,22.827,61.633,37.771,95.849,51.409c31.11,12.4,60.294,29.369,86.351,50.425
			c49.648,40.118,85.023,95.823,102.563,156.994C1781.784,1593.336,1785.625,1625.845,1785.711,1658.184z"/>
		<path d="M1189.644,653.858c1.621,15.834,3.177,31.745,6.724,47.288c5.444,23.861,14.64,46.667,27.613,67.427
			c21.968,35.156,56.103,63.273,95.518,76.529c37.987,12.776,79.674,13.037,117.14-1.853c42.54-16.907,75.279-49.868,96.059-90.315
			c7.593-14.781,13.893-30.317,20.272-45.65c7.078-17.014,13.773-34.191,19.915-51.566c12.37-34.994,22.758-70.754,29.339-107.313
			c3.28-18.219,5.542-36.599,6.956-55.055c4.716-65.091-4.594-133.462-33.671-192.394c-14.183-28.746-32.974-55.589-57.148-76.826
			c-22.495-19.762-49.003-34.327-77.689-42.804c-27.439-8.108-57.333-9.587-85.239-2.889c-28.411,6.819-53.565,22.042-74.468,42.219
			c-42.674,41.193-64.787,100.608-77.748,157.255c-7.726,33.768-12.103,68.253-15.066,102.737
			c-3.311,38.531-4.156,77.272-2.595,115.913C1186.329,615.696,1187.693,634.807,1189.644,653.858z M1216.797,434.691
			c4.17-28.423,10.166-56.647,18.878-84.039c7.501-23.583,19.914-52.197,33.795-73.1c14.636-22.039,32.116-40.611,54.364-54.129
			c22.005-13.37,48.325-20.214,73.706-19.531c27.411,0.737,52.992,8.254,76.882,21.294c23.952,13.074,44.364,31.584,60.322,53.269
			c9.069,12.324,15.623,23.344,21.867,36.184c3.344,6.877,6.4,13.894,9.182,21.016c1.353,3.463,2.641,6.951,3.866,10.461
			c0.615,1.761,1.209,3.529,1.797,5.299c-0.007-0.022,0.219,0.68,0.369,1.139c0.198,0.652,0.839,2.73,0.826,2.687
			c9.04,29.985,13.452,59.161,14.537,88.977c0.556,15.269,0.22,30.554-0.884,45.792c-5.282,68.958-26.779,136.1-53.274,199.789
			c-6.222,14.957-12.384,30.088-19.709,44.547c-5.671,11.195-9.432,17.363-16.652,27.019c-6.274,8.39-13.251,16.259-20.898,23.423
			c-0.907,0.85-1.83,1.682-2.749,2.519c-0.054,0.049-0.092,0.084-0.134,0.122c-0.378,0.324-0.755,0.649-1.135,0.971
			c-1.996,1.69-4.032,3.332-6.106,4.926c-3.939,3.027-8.015,5.876-12.216,8.53c-3.977,2.513-8.065,4.851-12.249,7.002
			c-2.067,1.062-4.158,2.08-6.27,3.051c-1.051,0.483-2.107,0.953-3.167,1.413c-0.454,0.196-0.912,0.383-1.364,0.584
			c-0.13,0.058-0.23,0.103-0.333,0.148c-0.018,0.007-0.027,0.01-0.047,0.018c-8.625,3.403-17.531,6.068-26.618,7.916
			c-4.574,0.93-9.188,1.658-13.826,2.182c-2.073,0.234-4.15,0.428-6.231,0.581c-1.119,0.082-2.239,0.152-3.36,0.21
			c-0.639,0.033-1.278,0.056-1.916,0.089c-9.087,0.14-18.152-0.377-27.147-1.703c-4.604-0.679-9.178-1.554-13.708-2.621
			c-2.192-0.516-4.373-1.077-6.542-1.682c-1.086-0.303-2.164-0.635-3.249-0.941c-0.028-0.008-0.082-0.024-0.149-0.044
			c-0.465-0.151-1.352-0.434-1.522-0.492c-8.775-2.968-17.306-6.578-25.493-10.918c-4.207-2.23-8.32-4.638-12.323-7.217
			c-0.513-0.331-1.022-0.669-1.532-1.006c-0.246-0.178-1.56-1.077-1.924-1.335c-2.036-1.442-4.041-2.928-6.012-4.458
			c-7.618-5.914-14.61-12.495-21.196-19.53c-0.264-0.3-0.529-0.599-0.791-0.901c-0.794-0.914-1.579-1.836-2.354-2.766
			c-1.673-2.007-3.302-4.052-4.884-6.131c-2.999-3.942-5.832-8.011-8.494-12.189c-1.354-2.125-2.635-4.29-3.925-6.453
			c-0.095-0.16-0.167-0.278-0.227-0.377c-0.084-0.162-0.186-0.356-0.329-0.625c-0.687-1.293-1.386-2.579-2.057-3.881
			c-2.474-4.803-4.739-9.713-6.796-14.708c-1.015-2.466-1.979-4.952-2.894-7.457c-0.396-1.085-0.783-2.174-1.16-3.266
			c-0.261-0.756-0.909-2.778-0.991-2.997c-1.539-5.1-2.933-10.235-4.104-15.434c-3.01-13.366-4.601-27.412-5.931-40.662
			C1204.964,581.958,1206.1,507.608,1216.797,434.691z"/>
		<path d="M2005.401,717.183c-12.974-51.687-44.381-97.458-92.283-122.254c-21.702-11.234-46.143-17.448-70.665-16.553
			c-25.418,0.928-50.304,9.31-71.791,22.784c-45.27,28.389-76.624,74.607-99.579,121.903
			c-26.703,55.018-44.989,114.897-57.021,174.752c-3.135,15.597-5.806,31.288-8.01,47.044c-1.933,13.817-3.977,27.724-4.334,41.692
			c-0.528,20.644,2.173,41.692,8.716,61.311c11.751,35.234,35.304,66.454,67.384,85.57c31.633,18.849,68.44,25.657,104.69,19.064
			c41.257-7.503,76.924-33.33,102.36-65.938c36.81-47.189,70.991-97.651,94.938-152.696c6.121-14.07,11.534-28.461,16.274-43.055
			C2013.78,835.367,2019.684,774.085,2005.401,717.183z M1867.491,1072.249c-2.975,3.829-6.061,7.568-9.305,11.173
			c-0.539,0.599-1.089,1.189-1.636,1.781c-0.353,0.359-1.43,1.483-1.667,1.721c-2.022,2.036-4.094,4.023-6.216,5.956
			c-3.238,2.949-6.591,5.773-10.055,8.453c-1.471,1.138-2.97,2.238-4.478,3.326c-0.344,0.234-1.556,1.081-1.844,1.271
			c-1.263,0.835-2.539,1.651-3.827,2.448c-3.788,2.343-7.682,4.517-11.668,6.506c-1.629,0.813-3.274,1.595-4.933,2.345
			c-0.988,0.447-1.985,0.869-2.977,1.305c-0.045,0.019-0.075,0.031-0.116,0.049c-0.54,0.213-1.081,0.425-1.624,0.632
			c-7.858,2.988-15.986,5.263-24.257,6.767c-1.016,0.185-2.036,0.344-3.053,0.519c-0.16,0.028-0.281,0.049-0.402,0.071
			c-0.128,0.014-0.261,0.028-0.435,0.047c-2.036,0.229-4.066,0.472-6.109,0.639c-4.389,0.359-8.796,0.503-13.199,0.433
			c-3.7-0.058-7.399-0.268-11.082-0.627c-1.675-0.163-3.346-0.362-5.014-0.589c-0.39-0.067-1.672-0.266-1.898-0.305
			c-1.319-0.227-2.635-0.473-3.947-0.738c-7.865-1.588-15.59-3.861-23.066-6.773c-3.745-1.458-7.427-3.077-11.034-4.848
			c-0.189-0.093-1.342-0.681-1.708-0.86c-0.617-0.33-1.234-0.658-1.846-0.997c-1.766-0.978-3.51-1.993-5.233-3.045
			c-7.23-4.414-14.068-9.47-20.413-15.083c-2.823-2.497-5.549-5.105-8.17-7.814c-0.719-0.743-1.423-1.499-2.132-2.251
			c-0.139-0.148-0.253-0.268-0.352-0.37c-0.102-0.123-0.224-0.267-0.385-0.458c-1.574-1.855-3.156-3.696-4.667-5.605
			c-5.263-6.651-9.947-13.758-13.997-21.21c-2.076-3.82-3.978-7.73-5.724-11.711c-0.053-0.12-0.092-0.21-0.136-0.309
			c-0.031-0.082-0.077-0.201-0.157-0.401c-0.343-0.855-0.688-1.71-1.02-2.57c-0.938-2.429-1.815-4.882-2.63-7.355
			c-2.888-8.765-4.997-17.781-6.353-26.908c-0.711-4.785-0.886-6.405-1.224-12.361c-0.307-5.423-0.365-10.86-0.189-16.289
			c0.393-12.139,2.039-24.228,3.762-36.238c8.503-59.265,23.469-117.897,45.357-173.616c9.167-23.335,19.703-46.163,32.401-67.801
			c0.783-1.335,1.574-2.665,2.374-3.989c0.017-0.028,1.285-2.097,1.555-2.551c1.489-2.375,3.015-4.727,4.568-7.06
			c3.378-5.076,6.896-10.06,10.57-14.927c3.62-4.796,7.39-9.479,11.325-14.021c1.725-1.991,3.487-3.951,5.277-5.884
			c0.3-0.303,1.897-1.981,1.991-2.077c1.369-1.391,2.756-2.764,4.162-4.118c3.824-3.681,7.788-7.219,11.897-10.579
			c2.216-1.812,4.473-3.572,6.773-5.275c3.599-2.665,2.494-1.896,6.257-4.303c4.35-2.782,8.835-5.354,13.446-7.679
			c6.186-3.119,8.849-4.243,14.88-6.279c20.855-7.04,42.725-7.98,64.053-2.689c44.971,11.157,81.116,44.83,100.523,86.62
			c22.229,47.869,23.417,104.379,13.332,155.208c-2.681,13.509-6.182,26.835-10.37,39.953
			c-17.154,52.819-45.798,101.433-77.808,146.249C1885.163,1049.029,1876.441,1060.732,1867.491,1072.249z"/>
		<path d="M645.948,708.386c11.178,26.7,22.273,53.752,40.084,76.834c13.173,17.07,29.292,32.197,47.694,43.498
			c34.365,21.106,75.987,29.436,115.8,22.729c41.305-6.958,79.605-27.76,107.488-59.147c15.555-17.51,28.166-37.39,36.97-59.132
			c10.582-26.135,14.762-53.219,17.53-81.118c7.633-76.923,6.46-154.799-5.293-231.26c-9.049-58.873-25.033-119.414-59.466-168.93
			c-15.914-22.885-36.353-43.351-60.806-57.008c-25.849-14.437-55.261-20.992-84.81-19.412
			c-61.574,3.292-117.612,38.665-153.477,87.739c-38.939,53.28-56.216,119.922-58.844,185.139
			c-0.637,15.814-0.323,31.647,0.821,47.431C595.287,569.489,617.523,640.486,645.948,708.386z M645.1,310.806
			c1.613-3.292,3.291-6.552,5.037-9.775c0.267-0.494,1.661-2.965,1.74-3.127c0.956-1.646,1.923-3.285,2.914-4.91
			c3.785-6.201,7.84-12.237,12.164-18.076c2.156-2.911,4.38-5.772,6.672-8.577c0.491-0.601,0.986-1.199,1.482-1.795
			c0.131-0.157,0.847-1.007,1.241-1.478c0.259-0.299,0.55-0.633,0.571-0.657c0.83-0.925,1.664-1.846,2.509-2.758
			c4.713-5.085,9.697-9.917,14.923-14.473c19.336-16.858,43.205-29.938,69.421-36.996c24.231-6.523,50.957-7.246,75.89-0.484
			c24.554,6.659,47.466,21.224,64.748,38.932c38.982,39.945,58.418,94.89,70.19,148.431c7.063,32.126,11.042,63.982,13.674,97.151
			c2.931,36.933,3.605,74.039,2.073,111.056c-0.744,17.964-1.982,35.913-3.832,53.797c-1.468,14.193-3.018,28.406-6.196,42.336
			c-0.625,2.737-1.302,5.463-2.034,8.173c-0.361,1.338-0.737,2.671-1.125,4.001c-0.171,0.588-0.765,2.522-0.992,3.278
			c-0.24,0.711-0.73,2.188-0.881,2.625c-0.44,1.273-0.893,2.542-1.359,3.806c-0.986,2.677-2.028,5.333-3.129,7.964
			c-2.011,4.804-4.215,9.528-6.614,14.152c-0.59,1.137-1.199,2.262-1.804,3.391c-0.137,0.256-0.242,0.453-0.331,0.622
			c-0.033,0.056-0.058,0.097-0.098,0.165c-1.373,2.322-2.758,4.633-4.214,6.905c-2.766,4.314-5.715,8.511-8.842,12.571
			c-1.381,1.793-2.797,3.559-4.246,5.298c-0.533,0.639-1.059,1.239-1.311,1.523c0.157-0.175,0.442-0.491,0.906-1.001
			c-0.925,1.018-1.829,2.055-2.763,3.066c-6.519,7.065-13.657,13.319-21.113,19.358c-0.256,0.192-0.513,0.384-0.772,0.57
			c-0.944,0.677-1.883,1.36-2.836,2.026c-2.032,1.421-4.094,2.797-6.187,4.128c-3.878,2.466-7.857,4.773-11.923,6.913
			c-2.022,1.064-4.089,2.034-6.126,3.067c-0.125,0.063-0.223,0.114-0.307,0.158c-0.136,0.058-0.295,0.126-0.495,0.212
			c-1.192,0.516-2.38,1.039-3.58,1.538c-4.33,1.802-8.736,3.422-13.203,4.852c-4.292,1.374-8.641,2.574-13.031,3.595
			c-1.095,0.254-2.193,0.497-3.293,0.729c-0.617,0.13-1.63,0.328-1.987,0.402c-2.052,0.363-4.109,0.697-6.173,0.982
			c-9.041,1.252-18.187,1.747-27.31,1.461c-2.243-0.07-4.484-0.188-6.722-0.352c-1.056-0.077-2.11-0.174-3.165-0.267
			c-0.638-0.073-1.276-0.146-1.913-0.226c-4.474-0.56-8.924-1.311-13.334-2.251c-9.074-1.934-17.976-4.669-26.568-8.169
			c-1.885-0.768-3.748-1.583-5.603-2.418c-0.216-0.107-1.577-0.744-2.041-0.973c-1.194-0.591-2.381-1.196-3.561-1.816
			c-4.322-2.274-8.538-4.747-12.633-7.407c-8.313-5.4-16.12-11.57-23.332-18.369c-0.912-0.859-1.811-1.731-2.707-2.607
			c-0.41-0.401-0.524-0.505-0.534-0.507c-0.114-0.122-0.334-0.355-0.756-0.797c-1.894-1.984-3.751-4.001-5.557-6.066
			c-3.456-3.953-6.738-8.058-9.844-12.291c-6.697-9.128-12.57-18.85-17.656-28.962c-14.708-29.238-27.235-62.145-38.331-93.641
			c-11.638-33.034-21.275-66.828-27.606-101.296c-3.032-16.509-5.127-33.165-6.409-49.9C610.47,426.79,618.534,365.04,645.1,310.806
			z"/>
		<path d="M943.341,773.876C943.125,774.116,943.157,774.083,943.341,773.876L943.341,773.876z"/>
		<path d="M495.309,1143.397c34.893-14.164,64.824-41.053,82.46-74.351c9.805-18.514,16.407-38.404,19.27-59.189
			c3.371-24.475,0.802-48.815-2.685-73.117c-9.051-63.09-25.566-125.276-49.24-184.46c-19.182-47.953-45.143-96.31-83.924-131.321
			c-18.021-16.269-39.276-29.707-62.707-36.523c-24.39-7.094-50.031-7.497-74.585-0.84
			c-52.146,14.138-93.849,53.298-116.174,101.896c-24.247,52.782-26.142,114.42-14.975,170.701
			c2.88,14.516,6.734,28.819,11.234,42.914c18.594,57.254,49.562,109.133,84.518,157.794c14.706,20.471,29.402,41.773,48.453,58.506
			c14.686,12.899,31.709,23.56,50.118,30.24C422.081,1158.349,460.819,1157.398,495.309,1143.397z M448.198,1128.186
			C447.491,1128.198,446.882,1128.196,448.198,1128.186L448.198,1128.186z M371.741,1104.816c-0.762-0.533-1.523-1.069-2.275-1.616
			c-1.894-1.378-3.757-2.798-5.588-4.258c-3.765-3.003-7.395-6.175-10.885-9.495c-7.704-7.328-14.554-15.388-21.029-23.806
			c-34.302-44.599-65.98-91.75-88.497-143.506c-5.625-12.93-10.625-26.115-14.98-39.526
			c-16.257-50.923-21.856-107.615-8.574-159.869c6.048-23.792,15.656-44.868,30.632-64.484c0.306-0.372,1.688-2.12,1.776-2.226
			c0.941-1.127,1.898-2.242,2.868-3.345c1.613-1.833,3.266-3.631,4.957-5.392c2.022-2.106,4.098-4.159,6.227-6.156
			c1.061-0.996,2.135-1.977,3.222-2.945c0.326-0.29,3.226-2.719,3.138-2.68c4.273-3.421,8.683-6.66,13.274-9.645
			c2-1.301,4.031-2.555,6.088-3.764c3.851-2.263,2.712-1.666,6.715-3.63c20.124-9.874,40.803-14.639,62.799-12.813
			c21.485,1.783,42.6,10.197,60.093,22.043c39.949,27.053,66.887,70.485,86.943,113.386c24.531,52.475,41.455,108.87,52.59,165.634
			c5.24,26.714,10.453,54.308,11.151,81.584c0.103,4.043,0.064,7.444-0.288,12.969c-0.331,5.207-0.893,10.4-1.696,15.555
			c-0.66,4.238-1.547,8.415-2.466,12.602c-0.053,0.239-0.095,0.436-0.129,0.598c-0.037,0.132-0.078,0.277-0.127,0.453
			c-0.304,1.098-0.599,2.197-0.917,3.291c-0.733,2.526-1.529,5.033-2.388,7.518c-1.326,3.839-2.803,7.627-4.428,11.349
			c-0.874,2.002-1.814,3.971-2.749,5.945c-0.039,0.082-0.063,0.134-0.096,0.205c-0.054,0.097-0.101,0.182-0.168,0.305
			c-0.687,1.261-1.353,2.532-2.056,3.784c-2.088,3.714-4.335,7.338-6.734,10.859c-0.989,1.452-2.004,2.886-3.045,4.302
			c-0.622,0.845-1.252,1.684-1.891,2.517c-0.163,0.213-0.33,0.422-0.495,0.634c-0.079,0.097-0.159,0.195-0.261,0.32
			c-5.395,6.31-11.096,12.162-17.317,17.66c-0.012,0.011-0.018,0.016-0.03,0.027c-0.011,0.009-0.017,0.013-0.029,0.023
			c-0.8,0.632-1.589,1.276-2.394,1.902c-1.605,1.248-3.237,2.462-4.893,3.64c-3.573,2.543-7.261,4.922-11.051,7.128
			c-0.844,0.491-5.672,3.05-1.975,1.162c-1.793,0.916-3.58,1.837-5.4,2.699c-3.932,1.863-7.951,3.544-12.038,5.037
			c-1.884,0.688-3.783,1.336-5.695,1.942c-0.79,0.25-3.781,1.088-3.516,1.04c-3.839,0.983-7.698,1.854-11.606,2.526
			c-3.965,0.682-7.96,1.19-11.969,1.521c-1.844,0.152-3.69,0.248-5.538,0.343c-0.15,0.008-0.376,0.014-0.611,0.018
			c-1.237,0.009-2.474,0.021-3.712,0.003c-8.367-0.117-16.721-1.012-24.924-2.665c-1.87-0.377-3.732-0.792-5.585-1.247
			c-0.206-0.051-1.798-0.485-2.012-0.536c-0.698-0.2-1.397-0.398-2.093-0.608c-4.421-1.341-8.774-2.904-13.04-4.678
			c-8.176-3.399-16.025-7.572-23.447-12.398C373.529,1106.019,372.05,1105.017,371.741,1104.816z"/>
	</g>
</g>
</svg>
